<?xml version="1.0" encoding="UTF-8" standalone="no"?>
<!DOCTYPE svg PUBLIC "-//W3C//DTD SVG 1.1//EN" "http://www.w3.org/Graphics/SVG/1.1/DTD/svg11.dtd">
<svg xmlns="http://www.w3.org/2000/svg" version="1.1" viewBox="0.00 0.00 75.00 237.00">
<path fill="#ffffff" d="
  M 32.84 0.00
  L 47.81 0.00
  Q 58.02 1.44 65.28 8.59
  C 71.73 14.95 73.67 20.28 75.00 29.15
  L 75.00 33.22
  Q 73.87 45.36 64.87 53.85
  C 55.40 62.79 46.23 62.53 34.00 62.12
  C 20.40 61.67 8.56 50.43 6.18 36.99
  C 2.91 18.52 14.25 2.48 32.84 0.00
  Z
  M 36.12 6.34
  C 25.25 7.68 14.56 14.95 13.02 26.50
  Q 11.05 41.14 20.84 49.39
  C 33.56 60.12 55.05 57.68 64.19 43.70
  C 70.63 33.83 68.65 21.55 60.20 13.55
  Q 50.69 4.55 36.12 6.34
  Z"
/>
<path fill="#ffffff" d="
  M 34.94 237.00
  L 29.49 237.00
  Q 13.93 230.85 3.56 224.68
  Q 1.23 223.28 0.00 219.58
  L 0.00 216.75
  Q 2.16 210.94 4.33 207.24
  Q 13.26 192.04 15.25 175.25
  Q 16.51 164.64 15.93 138.25
  C 15.83 133.56 17.19 128.26 22.75 128.16
  Q 48.08 127.72 61.87 128.09
  C 65.71 128.19 68.53 130.90 68.78 134.72
  C 69.48 145.27 68.98 156.16 69.03 166.75
  Q 69.10 181.17 64.13 194.68
  Q 54.72 220.24 34.94 237.00
  Z
  M 7.37 218.85
  L 30.70 229.88
  A 2.45 2.19 -53.5 0 0 33.31 229.34
  C 50.31 212.65 61.92 189.64 62.01 165.50
  Q 62.07 150.52 62.00 136.21
  A 1.25 1.21 -0.2 0 0 60.75 135.01
  L 24.57 134.95
  A 1.60 1.60 0.0 0 0 22.96 136.56
  C 23.04 148.98 23.49 164.50 22.75 174.04
  C 21.47 190.42 15.04 204.07 7.17 218.24
  A 0.44 0.44 0.0 0 0 7.37 218.85
  Z"
/>
</svg>
