<svg xmlns="http://www.w3.org/2000/svg" version="1.1" viewBox="0.00 0.00 307.00 494.00">
<g strokeWidth="2.00" fill="none" strokeLinecap="butt">
<path stroke="#8E8E8E" vector-effect="non-scaling-stroke" d="
  M 154.89 10.71
  L 154.81 11.30
  Q 154.71 11.98 154.26 11.46
  Q 153.85 10.99 154.15 10.23
  Q 154.36 9.70 155.27 8.10
  Q 155.52 7.67 155.45 7.37
  Q 155.35 7.00 154.97 6.70"
/>
<path stroke="#8E8E8E" vector-effect="non-scaling-stroke" d="
  M 154.89 12.13
  C 156.70 13.59 158.73 14.04 160.97 12.87
  Q 164.15 11.22 167.22 9.81
  Q 168.25 9.34 167.62 10.28
  Q 165.41 13.52 163.68 17.54
  Q 163.59 17.76 163.60 17.95
  Q 163.63 18.20 163.75 18.37
  A 0.86 0.85 -39.6 0 0 165.03 18.49
  Q 167.66 16.03 170.03 15.13
  Q 175.65 12.99 180.65 11.41
  Q 182.15 10.93 181.10 12.10
  L 179.07 14.37
  A 1.20 1.19 32.5 0 0 179.50 16.27
  Q 180.85 16.84 181.54 15.04"
/>
<path stroke="#8E8E8E" vector-effect="non-scaling-stroke" d="
  M 240.19 33.20
  Q 240.06 33.77 240.78 33.92
  A 0.39 0.38 0.1 0 0 241.24 33.47
  Q 240.17 28.27 236.84 24.15
  Q 235.42 22.40 237.56 22.88
  Q 237.77 22.93 238.51 24.20
  Q 239.15 25.31 240.00 26.25
  C 244.54 31.24 248.30 39.54 250.91 45.76
  C 251.34 46.80 252.03 47.66 252.75 48.42
  A 0.61 0.60 -64.4 0 0 253.79 48.05
  C 254.13 44.11 252.71 39.65 252.05 35.73
  Q 252.03 35.62 252.14 35.62
  L 252.39 35.62
  Q 252.65 35.62 252.75 35.85
  C 254.69 40.19 255.81 45.24 256.59 49.80
  C 258.07 58.54 260.52 71.28 267.59 77.15
  C 280.73 88.05 285.14 102.74 289.35 118.72
  Q 291.59 127.23 292.34 135.13
  Q 294.01 152.70 292.12 172.73
  Q 291.26 181.85 290.32 190.98
  Q 289.02 203.67 288.39 207.74
  Q 287.00 216.83 284.37 227.44
  C 282.75 233.99 281.71 239.98 280.48 246.43
  A 0.81 0.81 0.0 0 0 281.05 247.36
  Q 281.07 247.36 281.21 246.52"
/>
<path stroke="#E7E7E7" vector-effect="non-scaling-stroke" d="
  M 281.21 246.52
  L 281.39 247.88
  A 0.40 0.40 0.0 0 0 282.11 248.07
  Q 282.99 246.93 283.99 246.27"
/>
<path stroke="#E7E7E7" vector-effect="non-scaling-stroke" d="
  M 275.71 287.27
  L 274.43 288.44
  Q 274.29 288.58 274.20 288.40
  Q 274.14 288.28 274.12 288.14
  A 0.03 0.03 0.0 0 0 274.07 288.14
  Q 274.00 288.28 273.87 288.40
  Q 273.66 288.59 273.63 288.61
  Q 273.40 288.71 272.91 288.42"
/>
<path stroke="#8E8E8E" vector-effect="non-scaling-stroke" d="
  M 274.49 272.67
  Q 274.92 270.07 274.43 267.56
  Q 273.74 263.96 273.73 263.91
  C 272.31 252.83 270.18 243.46 268.11 233.74
  C 266.43 225.91 267.58 217.78 265.47 210.03
  C 263.59 203.10 260.85 198.12 262.85 190.51
  C 263.80 186.89 265.49 183.09 266.12 179.75
  Q 269.11 164.04 264.81 148.49
  C 261.29 135.75 251.34 125.45 237.51 124.99
  Q 223.00 124.51 208.51 125.51
  Q 182.08 127.34 155.98 131.86
  Q 151.97 132.55 148.50 131.99
  C 123.43 127.95 100.27 124.82 75.75 124.69
  C 66.93 124.64 57.71 124.97 50.53 130.79
  C 37.11 141.67 35.62 160.62 37.34 176.47
  C 38.03 182.86 41.37 188.57 41.85 194.86
  C 42.34 201.33 38.39 208.21 37.59 213.75
  C 36.94 218.24 37.73 226.36 36.19 232.49
  C 33.05 245.03 31.11 256.52 29.40 270.00
  Q 29.37 270.29 29.90 270.31"
/>
<path stroke="#E7E7E7" vector-effect="non-scaling-stroke" d="
  M 29.03 279.12
  Q 29.47 280.25 28.49 280.88
  Q 28.09 281.15 28.10 281.63
  Q 28.14 283.10 27.19 283.07"
/>
<path stroke="#E7E7E7" vector-effect="non-scaling-stroke" d="
  M 21.17 247.18
  Q 22.50 244.86 21.95 242.28"
/>
<path stroke="#8E8E8E" vector-effect="non-scaling-stroke" d="
  M 21.95 242.28
  L 22.16 242.54
  A 0.29 0.29 0.0 0 0 22.67 242.30
  Q 21.16 234.48 19.33 227.11
  Q 14.87 209.17 13.25 190.75
  Q 12.29 179.75 11.17 168.76
  C 11.09 167.96 11.32 166.66 10.81 165.77"
/>
<path stroke="#8E8E8E" vector-effect="non-scaling-stroke" d="
  M 10.74 165.31
  Q 11.10 165.24 11.09 165.00
  Q 10.61 153.00 11.16 141.00
  Q 12.05 121.89 19.22 104.19
  Q 20.68 100.58 20.95 94.00
  Q 21.32 85.20 26.03 75.45
  Q 30.62 65.95 31.84 63.26
  Q 33.67 59.23 35.09 53.77
  Q 35.21 53.34 35.62 53.16
  Q 36.58 52.73 36.82 53.74
  Q 37.27 55.61 37.64 56.30
  Q 38.67 58.27 39.64 57.17"
/>
<path stroke="#8E8E8E" vector-effect="non-scaling-stroke" d="
  M 41.30 55.33
  L 45.14 51.33
  Q 46.31 50.12 46.44 51.76
  Q 46.46 51.96 46.14 53.17
  A 1.21 1.20 87.5 0 0 47.72 54.62
  Q 49.07 54.11 49.30 52.43"
/>
<path stroke="#8E8E8E" vector-effect="non-scaling-stroke" d="
  M 58.79 42.88
  L 74.26 31.47
  A 0.30 0.30 0.0 0 1 74.69 31.88
  C 72.14 35.75 68.36 40.37 67.42 44.93
  A 0.41 0.41 0.0 0 0 68.05 45.35
  Q 68.54 45.02 68.95 44.54
  Q 69.23 44.20 69.59 43.96
  Q 71.04 42.99 71.21 41.45"
/>
<path stroke="#8E8E8E" vector-effect="non-scaling-stroke" d="
  M 75.61 37.03
  L 94.87 20.11
  A 0.65 0.65 0.0 0 1 95.89 20.33
  Q 96.20 21.04 96.17 21.80
  Q 96.15 22.38 96.74 22.39
  Q 98.46 22.43 99.03 20.76"
/>
<path stroke="#8E8E8E" vector-effect="non-scaling-stroke" d="
  M 99.26 20.47
  Q 99.65 20.81 99.99 20.50
  Q 103.09 17.62 106.58 15.50
  Q 107.07 15.21 106.95 15.77
  L 106.46 18.00
  A 0.65 0.65 0.0 0 0 107.31 18.75
  Q 109.35 18.06 109.01 16.71"
/>
<path stroke="#8E8E8E" vector-effect="non-scaling-stroke" d="
  M 109.01 16.71
  L 109.33 16.65
  Q 109.82 16.57 110.19 16.24
  L 114.42 12.45
  Q 115.92 11.11 115.53 13.08
  Q 115.24 14.55 113.71 16.32
  Q 112.63 17.56 114.50 17.52
  A 0.84 0.83 22.1 0 0 115.05 17.29
  L 119.81 12.96"
/>
<path stroke="#8E8E8E" vector-effect="non-scaling-stroke" d="
  M 121.48 11.21
  Q 122.01 11.37 122.14 11.74
  Q 122.22 11.98 122.00 12.44
  Q 120.92 14.72 122.62 15.77
  Q 123.08 16.05 123.59 15.91
  Q 128.93 14.42 133.41 11.11"
/>
<path stroke="#8E8E8E" vector-effect="non-scaling-stroke" d="
  M 133.99 10.69
  Q 134.92 11.04 134.43 12.00
  Q 133.47 13.91 133.52 15.58
  A 0.92 0.92 0.0 0 0 135.05 16.25
  L 138.05 13.60
  A 0.84 0.84 0.0 0 1 139.28 13.72
  C 140.21 14.96 141.26 16.60 142.68 17.04
  Q 144.35 17.56 144.56 16.10"
/>
<path stroke="#CCCCCC" vector-effect="non-scaling-stroke" d="
  M 283.90 243.39
  Q 284.88 243.50 286.02 241.88"
/>
<path stroke="#8E8E8E" vector-effect="non-scaling-stroke" d="
  M 239.30 32.71
  Q 239.28 32.99 239.15 33.08
  Q 239.05 33.16 238.85 33.04
  C 235.70 31.27 231.99 24.91 230.33 21.81
  A 1.28 1.28 0.0 0 0 228.64 21.26
  C 223.53 23.72 218.64 29.07 212.88 24.10
  C 208.37 20.21 205.53 19.26 199.49 18.97
  Q 198.93 18.94 198.63 18.47
  L 198.10 17.64
  Q 197.89 17.32 197.50 17.30
  L 196.11 17.25
  Q 195.51 17.23 195.34 16.65
  Q 194.20 12.84 196.10 8.72
  Q 196.53 7.78 195.58 7.50
  Q 195.16 7.37 194.83 7.66
  Q 190.82 11.10 188.20 15.71
  Q 187.96 16.12 187.54 16.33
  Q 185.90 17.12 185.49 15.52
  Q 184.95 13.40 184.17 12.48"
/>
<path stroke="#CCCCCC" vector-effect="non-scaling-stroke" d="
  M 21.95 242.28
  Q 21.44 240.36 20.52 239.34"
/>
<path stroke="#8E8E8E" vector-effect="non-scaling-stroke" d="
  M 154.91 6.90
  Q 152.99 9.42 151.22 7.40
  A 0.78 0.78 0.0 0 0 149.91 7.63
  Q 148.10 12.21 145.77 15.54
  Q 145.45 16.00 145.07 15.80"
/>
<path stroke="#CCCCCC" vector-effect="non-scaling-stroke" d="
  M 281.93 244.82
  L 281.21 246.52"
/>
<path stroke="#E7E7E7" vector-effect="non-scaling-stroke" d="
  M 98.46 106.06
  Q 98.63 106.54 98.63 107.24
  Q 98.63 107.74 99.10 107.55
  Q 99.92 107.21 100.28 106.54
  Q 104.30 98.94 109.22 91.97"
/>
<path stroke="#8E8E8E" vector-effect="non-scaling-stroke" d="
  M 109.22 91.97
  C 108.35 94.19 107.83 96.12 106.43 98.15
  Q 102.07 104.45 99.94 112.27
  Q 99.76 112.93 99.90 113.46
  Q 100.05 114.06 100.54 113.69
  L 101.79 112.75"
/>
<path stroke="#E7E7E7" vector-effect="non-scaling-stroke" d="
  M 101.79 112.75
  L 104.16 124.27
  A 1.19 1.19 0.0 0 0 105.42 125.22
  Q 106.94 125.12 107.33 123.28
  C 109.50 113.11 111.54 105.10 117.21 94.91"
/>
<path stroke="#8E8E8E" vector-effect="non-scaling-stroke" d="
  M 117.21 94.91
  Q 117.13 97.00 116.59 98.98
  Q 114.04 108.35 111.73 117.78
  Q 110.74 121.82 110.92 124.11
  Q 111.09 126.21 111.85 124.25
  C 113.15 120.89 113.93 117.11 115.44 113.72
  Q 116.65 111.01 117.77 108.26
  Q 118.11 107.44 118.61 107.21
  A 0.60 0.60 0.0 0 1 119.45 107.82
  L 117.82 121.84
  Q 117.63 123.46 118.98 122.54
  Q 120.36 121.59 120.33 119.15
  Q 120.32 118.68 120.56 118.29
  C 121.57 116.62 121.78 114.78 122.67 113.09
  C 123.40 111.68 123.76 109.95 124.44 108.71
  C 128.33 101.64 131.88 93.99 136.33 87.29
  C 137.94 84.87 139.65 82.46 141.07 79.92
  C 141.94 78.38 143.31 77.06 144.14 75.72
  Q 145.88 72.91 148.14 70.45
  A 1.85 1.84 -16.0 0 0 148.58 69.66
  Q 148.74 69.02 149.11 68.49
  Q 154.74 60.29 161.14 52.70
  C 163.99 49.32 167.44 46.22 170.73 43.03
  A 0.52 0.51 48.0 0 0 170.76 42.33
  L 170.56 42.11
  A 0.79 0.78 50.7 0 0 169.48 42.00
  Q 163.30 46.76 157.01 51.61
  C 152.95 54.74 149.59 58.67 146.04 62.26
  Q 144.06 64.27 145.28 61.73
  Q 146.37 59.46 148.74 56.50
  Q 154.80 48.93 160.82 41.33
  Q 161.53 40.43 164.39 39.84
  Q 164.90 39.74 165.21 39.32
  L 171.42 30.85
  A 3.12 3.12 0.0 0 0 171.94 28.27
  L 171.74 27.48
  Q 171.40 26.07 170.49 27.19
  Q 167.53 30.78 165.28 34.03
  Q 165.08 34.32 164.75 34.31
  A 0.29 0.29 0.0 0 1 164.48 33.93
  C 166.45 27.96 170.03 23.62 173.55 18.58
  A 0.51 0.51 0.0 0 0 173.45 17.89
  L 173.23 17.70
  Q 173.08 17.58 172.94 17.72
  Q 171.14 19.58 169.19 21.30
  C 165.72 24.37 161.29 25.27 157.58 27.99
  C 154.97 29.91 152.51 32.25 149.76 33.69
  C 147.27 34.99 144.74 35.40 142.65 37.37
  Q 141.11 38.83 141.90 36.86
  C 143.89 31.95 147.25 27.49 149.46 22.59
  Q 150.51 20.24 148.39 21.70
  C 146.88 22.74 145.54 24.34 144.84 26.22
  C 142.34 32.94 138.54 38.22 135.02 44.08
  C 132.12 48.90 129.00 51.94 124.48 54.65
  Q 123.21 55.40 123.82 54.06
  C 127.08 46.87 134.35 42.44 135.95 34.43
  Q 136.24 32.96 134.75 33.10
  Q 134.41 33.13 133.66 33.94
  Q 128.38 39.66 123.33 45.57
  C 109.29 61.96 98.06 81.80 93.35 103.00
  Q 91.37 111.90 92.00 121.11
  A 0.51 0.48 -80.3 0 0 92.28 121.53
  Q 92.92 121.84 93.19 121.28
  Q 95.52 116.48 96.58 111.23
  Q 96.89 109.68 98.46 106.06"
/>
<path stroke="#CCCCCC" vector-effect="non-scaling-stroke" d="
  M 117.21 94.91
  C 120.02 89.11 122.58 83.61 126.49 78.31
  Q 131.44 71.60 136.07 65.05
  Q 137.29 63.32 135.52 64.49
  Q 134.48 65.18 132.88 66.87
  C 119.97 80.58 108.75 95.16 101.79 112.75"
/>
<path stroke="#CCCCCC" vector-effect="non-scaling-stroke" d="
  M 109.22 91.97
  Q 113.84 84.56 119.33 77.90
  Q 120.09 76.97 122.73 73.44
  Q 124.37 71.24 126.39 69.20"
/>
<path stroke="#8E8E8E" vector-effect="non-scaling-stroke" d="
  M 126.39 69.20
  Q 135.47 60.95 145.20 53.11
  C 150.53 48.82 154.84 43.73 159.71 38.91
  C 162.97 35.68 163.64 31.47 165.10 27.37
  A 0.44 0.44 0.0 0 0 164.78 26.80
  Q 164.64 26.76 164.50 26.72
  Q 164.23 26.64 163.98 26.78
  Q 159.83 29.02 157.57 33.18
  Q 157.33 33.60 156.85 33.64
  Q 156.27 33.68 155.96 33.18
  Q 155.65 32.69 155.11 32.93
  Q 154.33 33.29 154.01 34.30
  Q 149.42 37.66 145.10 41.37
  C 141.07 44.82 136.65 51.27 132.68 53.93
  Q 128.45 56.77 127.47 57.97
  Q 121.56 65.22 115.70 72.48
  Q 113.10 75.71 111.18 81.03"
/>
<path stroke="#CCCCCC" vector-effect="non-scaling-stroke" d="
  M 111.18 81.03
  Q 103.27 92.46 98.46 106.06"
/>
<path stroke="#E7E7E7" vector-effect="non-scaling-stroke" d="
  M 126.39 69.20
  Q 126.21 67.50 123.84 69.18
  Q 123.10 69.69 122.08 70.75
  Q 116.93 76.07 111.18 81.03"
/>
<path stroke="#E7E7E7" vector-effect="non-scaling-stroke" d="
  M 154.01 34.30
  L 148.89 47.50
  Q 148.08 49.60 149.89 48.26
  C 155.01 44.46 153.87 40.11 154.66 34.67
  A 0.37 0.37 0.0 0 0 154.33 34.25
  Q 154.19 34.23 154.01 34.30"
/>
<path stroke="#8E8E8E" vector-effect="non-scaling-stroke" d="
  M 194.7845 33.0537
  A 6.70 1.02 105.9 0 0 197.6010 26.8894
  A 6.70 1.02 105.9 0 0 198.4555 20.1663
  A 6.70 1.02 105.9 0 0 195.6390 26.3306
  A 6.70 1.02 105.9 0 0 194.7845 33.0537"
/>
<path stroke="#E7E7E7" vector-effect="non-scaling-stroke" d="
  M 186.98 45.99
  Q 186.41 50.52 183.18 54.76
  Q 174.35 66.36 166.89 74.57
  Q 166.82 74.65 166.82 74.74
  Q 166.82 74.88 166.82 75.01
  A 0.16 0.16 0.0 0 0 167.06 75.15
  C 175.19 70.21 182.70 61.19 187.44 53.31
  Q 189.08 50.59 190.05 47.34
  Q 190.94 44.36 191.77 40.99"
/>
<path stroke="#8E8E8E" vector-effect="non-scaling-stroke" d="
  M 191.77 40.99
  Q 193.71 39.01 194.36 37.66
  Q 196.23 33.84 193.15 36.78
  C 191.72 38.14 189.42 41.53 187.29 42.20
  A 0.55 0.55 0.0 0 1 186.62 41.46
  Q 190.62 32.15 190.31 21.96
  A 0.35 0.35 0.0 0 0 189.78 21.68
  Q 188.96 22.20 188.53 23.25
  Q 186.67 27.78 184.62 30.74
  Q 182.59 33.68 182.90 30.12
  Q 183.08 28.03 182.44 26.04
  Q 182.23 25.38 181.96 26.02
  C 180.91 28.48 180.81 31.53 180.45 33.46
  Q 179.25 39.98 177.27 45.93
  Q 176.58 48.01 178.32 46.68
  Q 178.77 46.34 179.45 44.93
  Q 182.81 38.04 186.49 31.32
  A 1.51 1.50 13.8 0 1 187.80 30.53
  L 188.08 30.52
  A 0.47 0.47 0.0 0 1 188.52 31.17
  Q 187.49 33.74 185.16 42.11
  Q 183.80 46.99 179.08 51.57
  Q 168.78 61.54 159.42 72.39
  C 158.53 73.42 157.95 75.00 157.01 76.01
  Q 150.97 82.52 145.86 89.78
  C 143.29 93.42 140.38 97.08 137.61 100.59
  C 136.53 101.96 135.00 104.51 133.24 106.18
  C 132.20 107.17 132.25 108.40 131.32 109.50
  Q 127.53 114.07 125.51 119.67
  Q 125.34 120.14 124.93 120.43
  Q 124.10 121.00 124.14 121.51
  Q 124.31 123.40 125.39 121.84
  C 130.49 114.50 134.95 107.35 140.91 100.59
  C 149.27 91.13 156.97 81.21 164.94 71.44
  C 171.82 63.00 177.45 56.02 186.98 45.99"
/>
<path stroke="#CCCCCC" vector-effect="non-scaling-stroke" d="
  M 191.77 40.99
  L 186.98 45.99"
/>
<path stroke="#E7E7E7" vector-effect="non-scaling-stroke" d="
  M 174.25 37.48
  C 176.69 35.88 176.38 29.35 176.22 27.27
  Q 176.14 26.31 175.66 27.15
  Q 173.05 31.72 173.51 37.12
  Q 173.58 37.92 174.25 37.48"
/>
<path stroke="#E7E7E7" vector-effect="non-scaling-stroke" d="
  M 51.77 98.57
  L 52.37 96.55
  Q 53.16 93.89 51.00 95.64
  C 47.37 98.57 45.31 101.57 45.81 106.49
  Q 46.27 111.11 46.95 114.84
  Q 47.36 117.11 47.79 114.84
  C 48.68 110.08 47.76 106.00 50.72 101.21"
/>
<path stroke="#8E8E8E" vector-effect="non-scaling-stroke" d="
  M 50.72 101.21
  C 50.23 103.75 49.33 106.34 49.37 108.82
  Q 49.48 115.71 52.13 122.19
  Q 53.34 125.14 53.43 121.95
  C 53.55 117.59 51.80 112.94 52.47 108.45
  Q 53.16 103.87 54.13 99.32
  Q 54.23 98.83 54.62 98.51
  C 56.89 96.57 57.76 93.49 58.84 91.62
  Q 60.34 89.03 61.74 86.41
  Q 63.14 83.79 64.87 81.33
  C 68.54 76.13 71.81 70.13 75.45 65.52
  Q 82.55 56.53 90.66 48.42
  C 94.20 44.89 98.43 42.40 102.07 38.80
  Q 107.14 33.79 112.63 28.76
  Q 113.86 27.64 112.22 27.36
  L 111.34 27.21
  Q 109.70 26.93 108.54 28.11
  Q 103.55 33.20 97.56 37.03
  Q 97.04 37.36 96.78 36.80
  Q 96.61 36.43 97.11 35.86
  Q 99.86 32.76 102.00 29.76
  Q 102.70 28.79 101.78 29.55
  C 85.53 43.06 71.76 56.37 58.83 74.74
  Q 58.73 74.88 58.86 75.00
  L 59.09 75.23
  Q 59.30 75.43 59.52 75.26
  L 64.40 71.38
  A 0.41 0.41 0.0 0 1 65.05 71.81
  Q 64.60 73.45 63.51 75.74
  Q 58.76 85.76 55.63 91.37
  C 53.96 94.36 53.61 96.14 51.77 98.57"
/>
<path stroke="#CCCCCC" vector-effect="non-scaling-stroke" d="
  M 50.72 101.21
  L 51.77 98.57"
/>
<path stroke="#8E8E8E" vector-effect="non-scaling-stroke" d="
  M 192.09 59.66
  C 193.52 57.54 195.27 55.41 196.51 53.40
  Q 202.20 44.18 205.46 33.80
  Q 206.49 30.50 204.11 28.61
  A 0.54 0.53 24.4 0 0 203.25 28.93
  C 201.08 40.92 193.48 56.87 184.72 65.48
  Q 180.25 69.87 175.96 74.44
  Q 175.95 74.46 175.87 74.75
  Q 175.80 75.02 176.29 75.00
  A 0.54 0.53 -62.3 0 0 176.60 74.90
  C 181.81 71.42 189.70 66.62 190.78 62.85
  Q 191.40 60.68 192.09 59.66"
/>
<path stroke="#E7E7E7" vector-effect="non-scaling-stroke" d="
  M 86.38 107.46
  Q 86.74 113.41 88.83 118.97
  Q 88.91 119.17 89.11 119.11
  Q 89.24 119.07 89.33 118.95
  Q 89.44 118.80 89.42 118.52
  Q 88.68 107.06 91.92 96.05
  Q 93.54 90.52 95.17 84.83
  A 0.38 0.38 0.0 0 0 94.67 84.37
  Q 94.08 84.59 93.05 85.79"
/>
<path stroke="#8E8E8E" vector-effect="non-scaling-stroke" d="
  M 93.05 85.79
  Q 94.61 77.23 100.06 70.52
  Q 100.37 70.13 100.85 70.01
  Q 103.36 69.36 104.06 68.32
  Q 111.34 57.39 118.85 46.62
  C 121.17 43.30 125.58 37.96 128.39 33.14
  Q 128.67 32.67 128.68 32.30
  A 0.51 0.51 0.0 0 0 127.89 31.86
  C 119.14 37.83 111.64 46.97 106.05 55.89
  Q 105.47 56.83 105.50 55.73
  L 105.56 53.68
  A 0.73 0.72 65.8 0 0 104.28 53.19
  L 94.93 64.50
  A 0.41 0.35 -71.0 0 1 94.69 64.64
  L 94.39 64.69
  Q 93.61 64.82 94.03 64.15
  L 100.70 53.52
  A 0.31 0.30 15.6 0 0 100.43 53.05
  L 99.95 53.06
  A 0.83 0.82 -71.2 0 0 99.33 53.37
  L 91.52 63.28
  Q 89.52 65.81 90.60 62.78
  Q 90.74 62.40 91.93 60.65
  Q 99.80 49.06 108.68 38.21
  Q 110.21 36.34 110.87 34.71
  Q 111.42 33.34 110.08 33.98
  Q 107.75 35.10 105.77 37.04
  Q 94.11 48.50 84.52 61.68
  C 80.75 66.87 77.55 72.65 74.39 78.37
  Q 67.31 91.17 63.31 105.23
  Q 62.00 109.86 60.56 114.43
  Q 60.18 115.64 61.01 116.30
  A 0.77 0.77 0.0 0 0 62.18 116.06
  Q 65.79 109.40 68.13 102.25
  Q 68.54 101.01 69.55 99.49
  Q 70.45 98.15 70.88 96.74
  Q 72.74 90.65 76.94 85.43
  Q 78.15 83.94 78.13 85.86
  Q 78.13 86.06 77.99 86.88
  Q 77.90 87.38 77.69 87.86
  Q 72.69 99.22 68.19 110.77
  Q 66.75 114.44 65.80 118.27
  Q 65.78 118.36 65.86 118.40
  Q 65.99 118.45 66.12 118.46
  Q 66.40 118.47 66.53 118.23
  C 70.77 110.27 73.52 103.58 76.39 98.63
  C 78.42 95.13 82.50 84.89 85.96 83.16
  Q 87.41 82.43 86.86 83.96
  Q 84.23 91.24 81.06 98.35
  Q 80.46 99.69 80.30 101.84
  A 1.61 1.60 -24.2 0 1 79.98 102.67
  C 79.07 103.89 79.41 105.38 79.11 106.47
  Q 78.09 110.16 76.95 113.81
  Q 76.26 116.04 76.20 117.52
  Q 76.13 119.20 76.91 117.71
  C 78.81 114.08 80.35 110.21 82.38 106.45
  Q 84.21 103.06 84.01 106.91
  Q 83.91 108.66 84.47 111.49
  Q 84.61 112.21 85.00 112.42
  Q 85.55 112.73 85.65 112.10
  L 86.38 107.46"
/>
<path stroke="#CCCCCC" vector-effect="non-scaling-stroke" d="
  M 93.05 85.79
  Q 89.95 91.75 88.38 95.63
  Q 86.21 100.95 86.38 107.46"
/>
<path stroke="#8E8E8E" vector-effect="non-scaling-stroke" d="
  M 227.40 45.50
  C 227.66 46.96 227.38 49.23 228.31 50.35
  Q 229.04 51.23 229.12 50.09
  L 229.46 45.36
  A 0.83 0.82 32.2 0 1 231.00 45.01
  C 238.86 58.83 240.51 71.52 241.75 87.37
  C 242.54 97.61 242.21 108.36 242.07 118.90
  Q 242.06 119.13 242.14 119.32
  Q 242.25 119.57 242.36 119.70
  A 0.45 0.44 32.4 0 0 243.13 119.53
  C 245.18 112.16 245.34 104.56 246.03 97.00
  Q 246.85 88.01 246.17 79.01
  Q 244.60 58.18 231.01 42.49
  C 229.15 40.35 229.41 37.90 228.94 35.53
  Q 228.57 33.68 227.98 35.47
  Q 226.45 40.09 227.40 45.50"
/>
<path stroke="#8E8E8E" vector-effect="non-scaling-stroke" d="
  M 41.99 105.14
  C 42.15 105.71 42.10 106.44 42.40 107.07
  A 0.55 0.55 0.0 0 0 43.36 107.13
  Q 44.68 105.08 45.10 102.51
  C 46.85 91.71 48.98 82.55 55.83 74.32
  C 66.58 61.40 77.03 48.31 88.49 36.29
  Q 90.94 33.72 88.03 35.76
  C 75.40 44.60 65.24 57.58 54.84 69.41
  Q 46.92 78.43 44.67 83.27
  C 41.71 89.64 40.03 98.05 41.99 105.14"
/>
<path stroke="#8E8E8E" vector-effect="non-scaling-stroke" d="
  M 62.19 42.87
  C 59.22 46.19 56.35 49.34 54.19 53.01
  Q 53.44 54.29 54.51 53.26
  Q 61.08 47.02 66.61 39.84
  Q 67.39 38.84 66.29 39.47
  Q 64.09 40.75 62.19 42.87"
/>
<path stroke="#E7E7E7" vector-effect="non-scaling-stroke" d="
  M 131.99 106.63
  Q 143.60 90.15 156.50 74.65
  C 160.42 69.94 162.33 64.04 165.64 58.97
  C 167.91 55.51 170.62 51.76 172.03 47.85
  C 172.99 45.18 174.23 43.36 174.87 40.15
  Q 174.96 39.67 174.47 39.66
  C 171.82 39.62 170.06 45.31 169.60 47.45
  C 168.85 50.90 167.72 53.62 165.48 55.73
  Q 162.34 58.70 153.27 66.41
  Q 149.83 69.34 147.40 72.74
  Q 132.32 93.89 121.78 117.69
  Q 121.31 118.75 120.89 119.84
  Q 120.69 120.36 121.23 120.46
  Q 121.71 120.56 121.96 120.20
  C 124.26 116.82 126.96 114.04 128.97 111.03
  Q 130.45 108.81 131.99 106.63"
/>
<path stroke="#E7E7E7" vector-effect="non-scaling-stroke" d="
  M 229.63 91.92
  L 231.34 117.74
  Q 231.63 122.11 233.05 117.97
  C 237.72 104.35 241.41 88.04 237.71 74.10
  C 236.15 68.24 234.92 61.54 232.01 56.17
  A 0.31 0.31 0.0 0 0 231.43 56.32
  C 231.42 61.84 232.10 67.72 231.71 72.70
  Q 231.09 80.53 229.78 88.33"
/>
<path stroke="#8E8E8E" vector-effect="non-scaling-stroke" d="
  M 229.78 88.33
  C 229.55 82.03 230.14 75.74 228.75 69.58
  C 227.60 64.51 226.79 58.02 224.38 53.98
  Q 223.36 52.26 223.44 54.26
  C 223.66 59.06 225.56 64.74 225.91 69.82
  Q 226.99 85.43 226.22 91.50
  Q 225.35 98.42 225.60 105.39
  A 0.38 0.38 0.0 0 0 226.20 105.68
  Q 226.34 105.58 226.52 105.32
  Q 226.64 105.14 226.68 104.89
  Q 227.17 102.12 227.60 99.34
  Q 227.67 98.87 228.01 98.53
  C 229.26 97.29 229.33 94.61 229.63 91.92"
/>
<path stroke="#CCCCCC" vector-effect="non-scaling-stroke" d="
  M 229.78 88.33
  L 229.63 91.92"
/>
<path stroke="#E7E7E7" vector-effect="non-scaling-stroke" d="
  M 256.91 92.21
  Q 256.97 88.70 257.01 83.50
  Q 257.14 67.30 248.20 54.54
  Q 247.11 52.99 247.18 54.88
  C 247.29 58.20 247.51 61.61 248.14 65.01
  C 249.89 74.44 251.29 83.65 255.30 92.54
  Q 256.84 95.97 256.91 92.21"
/>
<path stroke="#E7E7E7" vector-effect="non-scaling-stroke" d="
  M 189.93 81.79
  Q 180.53 89.56 177.71 93.74
  C 174.92 97.87 171.54 103.87 172.10 107.63
  C 172.96 113.44 173.46 119.19 175.01 124.89
  C 175.41 126.34 176.25 127.24 177.80 126.56
  Q 178.21 126.38 178.21 125.93
  Q 178.17 123.34 178.54 120.75
  C 179.32 115.31 179.63 109.50 181.21 104.51
  Q 184.83 93.06 191.84 82.88"
/>
<path stroke="#8E8E8E" vector-effect="non-scaling-stroke" d="
  M 191.84 82.88
  Q 190.30 87.48 186.65 94.00
  Q 179.60 106.62 181.11 122.51
  A 1.06 1.03 -67.7 0 0 181.33 123.06
  Q 182.75 124.90 183.41 122.43"
/>
<path stroke="#E7E7E7" vector-effect="non-scaling-stroke" d="
  M 183.41 122.43
  Q 183.36 124.21 183.57 124.75
  Q 184.55 127.28 185.30 124.67
  Q 186.31 121.17 186.74 117.17
  Q 187.33 111.72 187.74 109.62
  Q 189.29 101.58 191.16 92.45"
/>
<path stroke="#8E8E8E" vector-effect="non-scaling-stroke" d="
  M 191.16 92.45
  Q 192.81 87.67 196.21 81.30
  Q 198.23 77.52 200.64 74.03
  Q 202.54 71.30 202.72 74.62
  C 203.16 82.71 200.75 91.73 202.80 99.56
  Q 203.50 102.22 203.59 103.25
  Q 204.43 112.93 205.72 122.58
  A 0.81 0.80 21.2 0 0 205.92 123.02
  Q 206.50 123.66 206.97 123.22
  Q 207.14 123.06 207.21 122.73
  C 208.81 114.41 205.67 106.31 206.32 97.89
  A 0.58 0.58 0.0 0 1 207.25 97.47
  Q 207.87 97.94 207.98 99.01
  Q 208.10 100.33 208.52 101.57
  C 209.22 103.68 209.20 105.65 210.21 107.69
  Q 210.44 108.16 210.35 108.66
  Q 210.21 109.54 210.83 110.22
  Q 211.69 111.16 211.62 109.89
  C 211.39 106.07 210.51 102.44 209.89 98.67
  Q 209.62 96.98 209.07 95.36
  C 207.90 91.86 209.02 88.18 209.14 84.27
  Q 209.29 79.60 212.15 75.21"
/>
<path stroke="#E7E7E7" vector-effect="non-scaling-stroke" d="
  M 212.15 75.21
  Q 211.28 83.40 211.75 91.63
  C 212.15 98.81 215.17 105.41 215.69 112.54
  Q 215.88 115.23 216.12 117.67
  Q 216.30 119.62 216.85 117.74
  Q 217.16 116.71 217.37 114.98
  Q 219.65 96.32 219.22 77.54
  Q 219.14 74.23 218.56 69.49
  Q 218.10 65.72 217.71 61.45"
/>
<path stroke="#8E8E8E" vector-effect="non-scaling-stroke" d="
  M 217.71 61.45
  Q 216.60 61.54 218.09 60.24
  Q 218.58 59.82 218.63 60.46
  C 219.26 68.39 220.14 76.23 220.13 84.19
  C 220.12 93.85 220.01 102.17 221.68 112.77
  Q 221.77 113.40 222.38 113.60
  L 222.73 113.72
  A 0.30 0.30 0.0 0 0 223.12 113.44
  C 222.98 105.41 223.86 96.33 223.86 89.51
  Q 223.87 83.38 223.69 77.25
  Q 223.40 66.67 219.77 56.56
  A 0.69 0.69 0.0 0 0 218.70 56.24
  Q 217.34 57.29 216.09 58.84
  Q 211.44 64.62 208.84 71.59
  Q 207.60 74.88 207.03 76.09
  Q 205.11 80.13 205.55 75.67
  Q 205.97 71.51 206.83 67.02
  C 207.28 64.68 208.43 61.76 208.75 58.99
  A 0.69 0.69 0.0 0 0 207.75 58.30
  Q 190.71 67.27 177.33 80.63
  C 174.98 82.97 171.98 85.13 169.53 87.70
  Q 169.52 87.72 168.92 88.20
  Q 168.61 88.46 168.52 88.91
  Q 168.43 89.38 168.12 89.72
  C 163.43 94.92 160.41 99.05 157.52 102.36
  C 155.46 104.73 154.01 107.48 151.86 109.86
  Q 150.37 111.52 146.96 118.92
  Q 145.57 121.93 145.78 125.08
  A 0.96 0.95 -19.2 0 0 147.27 125.80
  Q 147.87 125.40 148.36 124.74
  Q 148.54 124.49 148.74 124.42
  Q 148.93 124.36 149.10 124.38
  Q 149.62 124.44 149.62 124.97
  L 149.62 126.03
  Q 149.62 129.15 150.80 126.26
  Q 151.85 123.70 152.41 120.98
  A 0.96 0.95 86.9 0 1 153.06 120.25
  L 153.43 120.12
  A 0.38 0.37 -6.9 0 1 153.92 120.50
  Q 153.68 123.80 153.80 126.30
  Q 153.92 128.78 154.89 126.49
  C 156.71 122.16 157.24 117.34 158.99 113.17
  C 160.50 109.58 161.82 104.89 164.25 101.88
  Q 164.49 101.57 165.88 99.40
  C 166.73 98.07 168.10 97.11 168.75 95.52
  Q 168.93 95.07 169.29 94.77
  Q 170.80 93.49 172.90 90.76
  Q 174.51 88.67 179.06 84.70
  Q 179.37 84.43 179.59 83.99
  Q 179.85 83.47 180.09 83.23
  C 187.50 75.86 196.06 67.96 205.07 62.61
  A 0.64 0.64 0.0 0 1 205.82 62.68
  Q 206.48 63.29 205.83 63.82
  Q 205.47 64.12 205.32 64.34
  Q 201.72 69.92 197.16 74.69
  Q 194.85 77.11 191.30 79.02
  C 185.35 82.23 181.25 84.89 176.75 89.87
  C 175.89 90.82 175.65 92.11 174.70 93.19
  C 172.63 95.55 171.64 97.96 170.69 100.92
  Q 170.64 101.07 170.49 101.14
  Q 170.35 101.21 170.22 101.28
  Q 170.12 101.33 170.13 101.44
  C 170.25 102.91 169.48 103.80 169.17 104.91
  Q 167.19 111.97 168.72 118.73
  Q 169.73 123.22 169.84 118.62
  Q 169.92 115.28 170.26 110.34
  C 170.40 108.34 171.13 106.40 171.44 104.33
  Q 171.51 103.83 171.83 103.44
  Q 172.38 102.78 172.39 101.96
  Q 172.39 101.47 172.61 101.04
  L 174.88 96.55
  Q 175.09 96.14 175.47 95.89
  C 175.97 95.57 176.17 95.40 176.46 94.83
  Q 177.58 92.60 180.73 89.08
  C 183.75 85.72 186.18 82.73 189.93 81.79"
/>
<path stroke="#CCCCCC" vector-effect="non-scaling-stroke" d="
  M 217.71 61.45
  Q 213.80 68.49 212.15 75.21"
/>
<path stroke="#CCCCCC" vector-effect="non-scaling-stroke" d="
  M 191.16 92.45
  Q 187.51 98.30 185.81 103.96
  C 184.25 109.13 184.32 116.31 183.41 122.43"
/>
<path stroke="#CCCCCC" vector-effect="non-scaling-stroke" d="
  M 191.84 82.88
  Q 192.42 82.09 192.57 81.29
  Q 192.70 80.62 192.04 80.74
  Q 190.98 80.93 189.93 81.79"
/>
<path stroke="#8E8E8E" vector-effect="non-scaling-stroke" d="
  M 38.25 118.18
  Q 38.80 119.71 37.74 118.48
  Q 32.56 112.42 31.67 104.30
  C 31.33 101.20 32.32 98.32 33.08 95.29
  Q 33.88 92.08 34.36 88.53
  C 35.32 81.39 36.81 75.34 40.43 69.22
  C 42.47 65.79 45.54 62.69 48.36 59.76
  Q 49.83 58.24 47.96 59.24
  C 42.04 62.42 37.48 68.70 34.91 74.83
  C 32.62 80.29 31.67 87.74 30.72 94.16
  Q 30.54 95.39 29.81 94.27
  Q 29.48 93.78 29.56 92.25
  Q 29.86 86.18 30.22 81.89
  Q 30.56 77.89 28.96 81.57
  Q 27.63 84.65 27.21 89.25
  C 25.88 103.55 29.65 120.90 42.77 128.90
  Q 45.37 130.48 48.25 129.52
  L 49.38 129.14
  Q 52.17 128.20 49.86 126.37
  C 46.46 123.70 43.27 120.80 42.15 117.84
  C 38.94 109.40 37.69 102.00 40.16 91.99
  C 42.54 82.31 46.88 73.39 51.29 64.50
  Q 51.39 64.30 51.20 64.19
  L 51.19 64.19
  Q 51.01 64.08 50.88 64.26
  Q 40.94 78.53 36.91 95.50
  C 36.32 97.98 34.31 100.24 34.30 103.31
  C 34.28 108.57 36.59 113.49 38.25 118.18"
/>
<path stroke="#E7E7E7" vector-effect="non-scaling-stroke" d="
  M 65.28 81.90
  C 59.58 90.04 56.01 99.08 54.03 108.79
  C 53.00 113.85 55.61 118.17 58.08 123.46
  Q 58.26 123.85 58.66 123.88
  A 0.44 0.44 0.0 0 0 59.14 123.45
  C 59.28 119.70 59.28 115.90 60.16 112.26
  C 63.83 97.23 69.89 81.64 78.93 68.96
  Q 79.03 68.82 78.90 68.71
  L 78.71 68.55
  Q 78.39 68.28 78.10 68.57
  C 73.77 72.86 68.73 76.98 65.28 81.90"
/>
<path stroke="#E7E7E7" vector-effect="non-scaling-stroke" d="
  M 201.40 90.35
  C 202.15 85.90 202.10 81.34 202.15 75.76
  Q 202.15 75.62 202.01 75.62
  Q 201.85 75.62 201.70 75.62
  A 0.57 0.57 0.0 0 0 201.15 76.08
  Q 200.89 77.28 200.11 78.72
  C 193.76 90.42 194.69 103.67 198.56 116.07
  Q 200.36 121.82 200.32 115.79
  C 200.29 110.95 200.23 106.00 200.73 100.58
  C 201.05 97.18 200.83 93.70 201.40 90.35"
/>
<path stroke="#E7E7E7" vector-effect="non-scaling-stroke" d="
  M 138.96 121.49
  Q 138.76 121.83 138.81 122.07
  A 0.53 0.53 0.0 0 0 139.74 122.29
  C 144.04 117.19 148.74 112.65 152.73 107.20
  Q 159.96 97.31 168.00 88.34
  Q 169.13 87.08 167.47 87.40
  C 154.86 89.82 141.95 109.39 139.19 120.96
  Q 139.13 121.19 138.96 121.49"
/>
<path stroke="#E7E7E7" vector-effect="non-scaling-stroke" d="
  M 166.67 101.07
  C 161.76 105.92 159.24 114.29 157.29 120.73
  A 2.49 2.47 38.7 0 0 157.51 122.68
  L 157.82 123.25
  Q 158.35 124.18 158.66 123.16
  Q 162.39 111.06 167.72 102.32
  C 167.93 101.97 168.03 101.35 168.02 100.99
  A 0.64 0.64 0.0 0 0 167.18 100.40
  Q 166.98 100.47 166.91 100.61
  A 0.52 0.01 -63.4 0 1 166.67 101.07"
/>
<path stroke="#8E8E8E" vector-effect="non-scaling-stroke" d="
  M 97.59 234.91
  Q 94.48 233.75 91.20 234.43"
/>
<path stroke="#8E8E8E" vector-effect="non-scaling-stroke" d="
  M 87.46 233.97
  Q 85.14 232.71 82.95 233.28"
/>
<path stroke="#8E8E8E" vector-effect="non-scaling-stroke" d="
  M 74.17 231.89
  Q 67.22 230.28 59.88 234.36
  Q 57.07 235.92 51.12 240.85
  Q 50.74 241.16 50.25 241.19
  L 46.89 241.44"
/>
<path stroke="#8E8E8E" vector-effect="non-scaling-stroke" d="
  M 46.06 231.78
  Q 51.23 225.55 57.33 220.75"
/>
<path stroke="#8E8E8E" vector-effect="non-scaling-stroke" d="
  M 245.36 220.62
  Q 251.87 225.06 257.05 232.11"
/>
<path stroke="#8E8E8E" vector-effect="non-scaling-stroke" d="
  M 258.04 239.97
  Q 254.81 242.54 250.89 240.36"
/>
<path stroke="#8E8E8E" vector-effect="non-scaling-stroke" d="
  M 245.31 236.06
  Q 237.51 230.18 229.22 231.82"
/>
</g>
<path fill="#9B9B9B" d="
  M 154.89 10.71
  L 154.81 11.30
  Q 154.71 11.98 154.26 11.46
  Q 153.85 10.99 154.15 10.23
  Q 154.36 9.70 155.27 8.10
  Q 155.52 7.67 155.45 7.37
  Q 155.35 7.00 154.97 6.70
  Q 155.46 5.83 156.36 5.33
  Q 156.80 5.08 156.94 5.56
  C 157.39 7.06 155.99 9.14 154.89 10.71
  Z"
/>
<path fill="#9B9B9B" d="
  M 239.30 32.71
  Q 239.28 32.99 239.15 33.08
  Q 239.05 33.16 238.85 33.04
  C 235.70 31.27 231.99 24.91 230.33 21.81
  A 1.28 1.28 0.0 0 0 228.64 21.26
  C 223.53 23.72 218.64 29.07 212.88 24.10
  C 208.37 20.21 205.53 19.26 199.49 18.97
  Q 198.93 18.94 198.63 18.47
  L 198.10 17.64
  Q 197.89 17.32 197.50 17.30
  L 196.11 17.25
  Q 195.51 17.23 195.34 16.65
  Q 194.20 12.84 196.10 8.72
  Q 196.53 7.78 195.58 7.50
  Q 195.16 7.37 194.83 7.66
  Q 190.82 11.10 188.20 15.71
  Q 187.96 16.12 187.54 16.33
  Q 185.90 17.12 185.49 15.52
  Q 184.95 13.40 184.17 12.48
  Q 184.29 12.06 185.17 11.97
  A 0.77 0.77 0.0 0 1 186.01 12.75
  L 185.97 14.51
  Q 185.96 15.08 186.52 15.06
  Q 188.60 14.98 189.05 12.77
  Q 189.16 12.23 189.55 11.86
  L 195.38 6.17
  A 0.76 0.75 -64.9 0 1 195.98 5.95
  Q 197.30 6.07 196.81 7.45
  Q 195.46 11.26 196.13 15.34
  Q 196.21 15.87 196.74 15.99
  Q 197.81 16.24 198.34 15.33
  A 0.35 0.35 0.0 0 1 199.00 15.50
  L 199.00 17.50
  Q 199.00 18.00 199.50 18.00
  L 201.76 18.00
  Q 202.27 18.00 202.70 18.26
  Q 204.31 19.21 206.24 18.95
  Q 206.76 18.88 207.22 19.13
  Q 211.10 21.27 214.03 24.57
  A 0.62 0.62 0.0 0 0 214.38 24.77
  L 217.61 25.47
  A 0.35 0.33 -46.6 0 0 217.79 25.46
  C 222.47 24.29 225.06 21.58 228.77 20.55
  Q 230.56 20.05 231.35 21.74
  Q 234.36 28.27 239.30 32.71
  Z"
/>
<path fill="#9B9B9B" d="
  M 154.91 6.90
  Q 152.99 9.42 151.22 7.40
  A 0.78 0.78 0.0 0 0 149.91 7.63
  Q 148.10 12.21 145.77 15.54
  Q 145.45 16.00 145.07 15.80
  L 145.01 14.85
  Q 144.97 14.36 145.38 14.08
  C 147.37 12.71 148.45 8.74 149.79 6.61
  Q 150.07 6.16 150.53 6.43
  Q 152.29 7.44 154.91 6.90
  Z"
/>
<path fill="#D1D1D1" d="
  M 154.97 6.70
  Q 155.35 7.00 155.45 7.37
  Q 155.52 7.67 155.27 8.10
  Q 154.36 9.70 154.15 10.23
  Q 153.85 10.99 154.26 11.46
  Q 154.71 11.98 154.81 11.30
  L 154.89 10.71
  Q 155.06 11.39 154.89 12.13
  C 156.70 13.59 158.73 14.04 160.97 12.87
  Q 164.15 11.22 167.22 9.81
  Q 168.25 9.34 167.62 10.28
  Q 165.41 13.52 163.68 17.54
  Q 163.59 17.76 163.60 17.95
  Q 163.63 18.20 163.75 18.37
  A 0.86 0.85 -39.6 0 0 165.03 18.49
  Q 167.66 16.03 170.03 15.13
  Q 175.65 12.99 180.65 11.41
  Q 182.15 10.93 181.10 12.10
  L 179.07 14.37
  A 1.20 1.19 32.5 0 0 179.50 16.27
  Q 180.85 16.84 181.54 15.04
  L 184.17 12.48
  Q 184.95 13.40 185.49 15.52
  Q 185.90 17.12 187.54 16.33
  Q 187.96 16.12 188.20 15.71
  Q 190.82 11.10 194.83 7.66
  Q 195.16 7.37 195.58 7.50
  Q 196.53 7.78 196.10 8.72
  Q 194.20 12.84 195.34 16.65
  Q 195.51 17.23 196.11 17.25
  L 197.50 17.30
  Q 197.89 17.32 198.10 17.64
  L 198.63 18.47
  Q 198.93 18.94 199.49 18.97
  C 205.53 19.26 208.37 20.21 212.88 24.10
  C 218.64 29.07 223.53 23.72 228.64 21.26
  A 1.28 1.28 0.0 0 1 230.33 21.81
  C 231.99 24.91 235.70 31.27 238.85 33.04
  Q 239.05 33.16 239.15 33.08
  Q 239.28 32.99 239.30 32.71
  Q 240.02 33.70 240.19 33.20
  Q 240.06 33.77 240.78 33.92
  A 0.39 0.38 0.1 0 0 241.24 33.47
  Q 240.17 28.27 236.84 24.15
  Q 235.42 22.40 237.56 22.88
  Q 237.77 22.93 238.51 24.20
  Q 239.15 25.31 240.00 26.25
  C 244.54 31.24 248.30 39.54 250.91 45.76
  C 251.34 46.80 252.03 47.66 252.75 48.42
  A 0.61 0.60 -64.4 0 0 253.79 48.05
  C 254.13 44.11 252.71 39.65 252.05 35.73
  Q 252.03 35.62 252.14 35.62
  L 252.39 35.62
  Q 252.65 35.62 252.75 35.85
  C 254.69 40.19 255.81 45.24 256.59 49.80
  C 258.07 58.54 260.52 71.28 267.59 77.15
  C 280.73 88.05 285.14 102.74 289.35 118.72
  Q 291.59 127.23 292.34 135.13
  Q 294.01 152.70 292.12 172.73
  Q 291.26 181.85 290.32 190.98
  Q 289.02 203.67 288.39 207.74
  Q 287.00 216.83 284.37 227.44
  C 282.75 233.99 281.71 239.98 280.48 246.43
  A 0.81 0.81 0.0 0 0 281.05 247.36
  Q 281.07 247.36 281.21 246.52
  L 281.39 247.88
  A 0.40 0.40 0.0 0 0 282.11 248.07
  Q 282.99 246.93 283.99 246.27
  Q 282.42 249.42 281.77 252.49
  Q 279.21 264.58 277.83 276.86
  C 277.44 280.37 276.41 283.78 275.71 287.27
  L 274.43 288.44
  Q 274.29 288.58 274.20 288.40
  Q 274.14 288.28 274.12 288.14
  A 0.03 0.03 0.0 0 0 274.07 288.14
  Q 274.00 288.28 273.87 288.40
  Q 273.66 288.59 273.63 288.61
  Q 273.40 288.71 272.91 288.42
  Q 275.55 280.45 274.49 272.67
  Q 274.92 270.07 274.43 267.56
  Q 273.74 263.96 273.73 263.91
  C 272.31 252.83 270.18 243.46 268.11 233.74
  C 266.43 225.91 267.58 217.78 265.47 210.03
  C 263.59 203.10 260.85 198.12 262.85 190.51
  C 263.80 186.89 265.49 183.09 266.12 179.75
  Q 269.11 164.04 264.81 148.49
  C 261.29 135.75 251.34 125.45 237.51 124.99
  Q 223.00 124.51 208.51 125.51
  Q 182.08 127.34 155.98 131.86
  Q 151.97 132.55 148.50 131.99
  C 123.43 127.95 100.27 124.82 75.75 124.69
  C 66.93 124.64 57.71 124.97 50.53 130.79
  C 37.11 141.67 35.62 160.62 37.34 176.47
  C 38.03 182.86 41.37 188.57 41.85 194.86
  C 42.34 201.33 38.39 208.21 37.59 213.75
  C 36.94 218.24 37.73 226.36 36.19 232.49
  C 33.05 245.03 31.11 256.52 29.40 270.00
  Q 29.37 270.29 29.90 270.31
  L 29.03 279.12
  Q 29.47 280.25 28.49 280.88
  Q 28.09 281.15 28.10 281.63
  Q 28.14 283.10 27.19 283.07
  L 21.17 247.18
  Q 22.50 244.86 21.95 242.28
  L 22.16 242.54
  A 0.29 0.29 0.0 0 0 22.67 242.30
  Q 21.16 234.48 19.33 227.11
  Q 14.87 209.17 13.25 190.75
  Q 12.29 179.75 11.17 168.76
  C 11.09 167.96 11.32 166.66 10.81 165.77
  L 10.74 165.31
  Q 11.10 165.24 11.09 165.00
  Q 10.61 153.00 11.16 141.00
  Q 12.05 121.89 19.22 104.19
  Q 20.68 100.58 20.95 94.00
  Q 21.32 85.20 26.03 75.45
  Q 30.62 65.95 31.84 63.26
  Q 33.67 59.23 35.09 53.77
  Q 35.21 53.34 35.62 53.16
  Q 36.58 52.73 36.82 53.74
  Q 37.27 55.61 37.64 56.30
  Q 38.67 58.27 39.64 57.17
  L 41.30 55.33
  L 45.14 51.33
  Q 46.31 50.12 46.44 51.76
  Q 46.46 51.96 46.14 53.17
  A 1.21 1.20 87.5 0 0 47.72 54.62
  Q 49.07 54.11 49.30 52.43
  L 58.79 42.88
  L 74.26 31.47
  A 0.30 0.30 0.0 0 1 74.69 31.88
  C 72.14 35.75 68.36 40.37 67.42 44.93
  A 0.41 0.41 0.0 0 0 68.05 45.35
  Q 68.54 45.02 68.95 44.54
  Q 69.23 44.20 69.59 43.96
  Q 71.04 42.99 71.21 41.45
  L 75.61 37.03
  L 94.87 20.11
  A 0.65 0.65 0.0 0 1 95.89 20.33
  Q 96.20 21.04 96.17 21.80
  Q 96.15 22.38 96.74 22.39
  Q 98.46 22.43 99.03 20.76
  Q 98.98 20.54 99.26 20.47
  Q 99.65 20.81 99.99 20.50
  Q 103.09 17.62 106.58 15.50
  Q 107.07 15.21 106.95 15.77
  L 106.46 18.00
  A 0.65 0.65 0.0 0 0 107.31 18.75
  Q 109.35 18.06 109.01 16.71
  L 109.33 16.65
  Q 109.82 16.57 110.19 16.24
  L 114.42 12.45
  Q 115.92 11.11 115.53 13.08
  Q 115.24 14.55 113.71 16.32
  Q 112.63 17.56 114.50 17.52
  A 0.84 0.83 22.1 0 0 115.05 17.29
  L 119.81 12.96
  Q 120.40 11.99 121.48 11.21
  Q 122.01 11.37 122.14 11.74
  Q 122.22 11.98 122.00 12.44
  Q 120.92 14.72 122.62 15.77
  Q 123.08 16.05 123.59 15.91
  Q 128.93 14.42 133.41 11.11
  Q 133.18 10.90 133.99 10.69
  Q 134.92 11.04 134.43 12.00
  Q 133.47 13.91 133.52 15.58
  A 0.92 0.92 0.0 0 0 135.05 16.25
  L 138.05 13.60
  A 0.84 0.84 0.0 0 1 139.28 13.72
  C 140.21 14.96 141.26 16.60 142.68 17.04
  Q 144.35 17.56 144.56 16.10
  Q 144.82 16.04 145.07 15.80
  Q 145.45 16.00 145.77 15.54
  Q 148.10 12.21 149.91 7.63
  A 0.78 0.78 0.0 0 1 151.22 7.40
  Q 152.99 9.42 154.91 6.90
  Q 154.31 6.99 154.97 6.70
  Z
  M 98.46 106.06
  Q 98.63 106.54 98.63 107.24
  Q 98.63 107.74 99.10 107.55
  Q 99.92 107.21 100.28 106.54
  Q 104.30 98.94 109.22 91.97
  C 108.35 94.19 107.83 96.12 106.43 98.15
  Q 102.07 104.45 99.94 112.27
  Q 99.76 112.93 99.90 113.46
  Q 100.05 114.06 100.54 113.69
  L 101.79 112.75
  L 104.16 124.27
  A 1.19 1.19 0.0 0 0 105.42 125.22
  Q 106.94 125.12 107.33 123.28
  C 109.50 113.11 111.54 105.10 117.21 94.91
  Q 117.13 97.00 116.59 98.98
  Q 114.04 108.35 111.73 117.78
  Q 110.74 121.82 110.92 124.11
  Q 111.09 126.21 111.85 124.25
  C 113.15 120.89 113.93 117.11 115.44 113.72
  Q 116.65 111.01 117.77 108.26
  Q 118.11 107.44 118.61 107.21
  A 0.60 0.60 0.0 0 1 119.45 107.82
  L 117.82 121.84
  Q 117.63 123.46 118.98 122.54
  Q 120.36 121.59 120.33 119.15
  Q 120.32 118.68 120.56 118.29
  C 121.57 116.62 121.78 114.78 122.67 113.09
  C 123.40 111.68 123.76 109.95 124.44 108.71
  C 128.33 101.64 131.88 93.99 136.33 87.29
  C 137.94 84.87 139.65 82.46 141.07 79.92
  C 141.94 78.38 143.31 77.06 144.14 75.72
  Q 145.88 72.91 148.14 70.45
  A 1.85 1.84 -16.0 0 0 148.58 69.66
  Q 148.74 69.02 149.11 68.49
  Q 154.74 60.29 161.14 52.70
  C 163.99 49.32 167.44 46.22 170.73 43.03
  A 0.52 0.51 48.0 0 0 170.76 42.33
  L 170.56 42.11
  A 0.79 0.78 50.7 0 0 169.48 42.00
  Q 163.30 46.76 157.01 51.61
  C 152.95 54.74 149.59 58.67 146.04 62.26
  Q 144.06 64.27 145.28 61.73
  Q 146.37 59.46 148.74 56.50
  Q 154.80 48.93 160.82 41.33
  Q 161.53 40.43 164.39 39.84
  Q 164.90 39.74 165.21 39.32
  L 171.42 30.85
  A 3.12 3.12 0.0 0 0 171.94 28.27
  L 171.74 27.48
  Q 171.40 26.07 170.49 27.19
  Q 167.53 30.78 165.28 34.03
  Q 165.08 34.32 164.75 34.31
  A 0.29 0.29 0.0 0 1 164.48 33.93
  C 166.45 27.96 170.03 23.62 173.55 18.58
  A 0.51 0.51 0.0 0 0 173.45 17.89
  L 173.23 17.70
  Q 173.08 17.58 172.94 17.72
  Q 171.14 19.58 169.19 21.30
  C 165.72 24.37 161.29 25.27 157.58 27.99
  C 154.97 29.91 152.51 32.25 149.76 33.69
  C 147.27 34.99 144.74 35.40 142.65 37.37
  Q 141.11 38.83 141.90 36.86
  C 143.89 31.95 147.25 27.49 149.46 22.59
  Q 150.51 20.24 148.39 21.70
  C 146.88 22.74 145.54 24.34 144.84 26.22
  C 142.34 32.94 138.54 38.22 135.02 44.08
  C 132.12 48.90 129.00 51.94 124.48 54.65
  Q 123.21 55.40 123.82 54.06
  C 127.08 46.87 134.35 42.44 135.95 34.43
  Q 136.24 32.96 134.75 33.10
  Q 134.41 33.13 133.66 33.94
  Q 128.38 39.66 123.33 45.57
  C 109.29 61.96 98.06 81.80 93.35 103.00
  Q 91.37 111.90 92.00 121.11
  A 0.51 0.48 -80.3 0 0 92.28 121.53
  Q 92.92 121.84 93.19 121.28
  Q 95.52 116.48 96.58 111.23
  Q 96.89 109.68 98.46 106.06
  Z
  M 194.7845 33.0537
  A 6.70 1.02 105.9 0 0 197.6010 26.8894
  A 6.70 1.02 105.9 0 0 198.4555 20.1663
  A 6.70 1.02 105.9 0 0 195.6390 26.3306
  A 6.70 1.02 105.9 0 0 194.7845 33.0537
  Z
  M 186.98 45.99
  Q 186.41 50.52 183.18 54.76
  Q 174.35 66.36 166.89 74.57
  Q 166.82 74.65 166.82 74.74
  Q 166.82 74.88 166.82 75.01
  A 0.16 0.16 0.0 0 0 167.06 75.15
  C 175.19 70.21 182.70 61.19 187.44 53.31
  Q 189.08 50.59 190.05 47.34
  Q 190.94 44.36 191.77 40.99
  Q 193.71 39.01 194.36 37.66
  Q 196.23 33.84 193.15 36.78
  C 191.72 38.14 189.42 41.53 187.29 42.20
  A 0.55 0.55 0.0 0 1 186.62 41.46
  Q 190.62 32.15 190.31 21.96
  A 0.35 0.35 0.0 0 0 189.78 21.68
  Q 188.96 22.20 188.53 23.25
  Q 186.67 27.78 184.62 30.74
  Q 182.59 33.68 182.90 30.12
  Q 183.08 28.03 182.44 26.04
  Q 182.23 25.38 181.96 26.02
  C 180.91 28.48 180.81 31.53 180.45 33.46
  Q 179.25 39.98 177.27 45.93
  Q 176.58 48.01 178.32 46.68
  Q 178.77 46.34 179.45 44.93
  Q 182.81 38.04 186.49 31.32
  A 1.51 1.50 13.8 0 1 187.80 30.53
  L 188.08 30.52
  A 0.47 0.47 0.0 0 1 188.52 31.17
  Q 187.49 33.74 185.16 42.11
  Q 183.80 46.99 179.08 51.57
  Q 168.78 61.54 159.42 72.39
  C 158.53 73.42 157.95 75.00 157.01 76.01
  Q 150.97 82.52 145.86 89.78
  C 143.29 93.42 140.38 97.08 137.61 100.59
  C 136.53 101.96 135.00 104.51 133.24 106.18
  C 132.20 107.17 132.25 108.40 131.32 109.50
  Q 127.53 114.07 125.51 119.67
  Q 125.34 120.14 124.93 120.43
  Q 124.10 121.00 124.14 121.51
  Q 124.31 123.40 125.39 121.84
  C 130.49 114.50 134.95 107.35 140.91 100.59
  C 149.27 91.13 156.97 81.21 164.94 71.44
  C 171.82 63.00 177.45 56.02 186.98 45.99
  Z
  M 174.25 37.48
  C 176.69 35.88 176.38 29.35 176.22 27.27
  Q 176.14 26.31 175.66 27.15
  Q 173.05 31.72 173.51 37.12
  Q 173.58 37.92 174.25 37.48
  Z
  M 51.77 98.57
  L 52.37 96.55
  Q 53.16 93.89 51.00 95.64
  C 47.37 98.57 45.31 101.57 45.81 106.49
  Q 46.27 111.11 46.95 114.84
  Q 47.36 117.11 47.79 114.84
  C 48.68 110.08 47.76 106.00 50.72 101.21
  C 50.23 103.75 49.33 106.34 49.37 108.82
  Q 49.48 115.71 52.13 122.19
  Q 53.34 125.14 53.43 121.95
  C 53.55 117.59 51.80 112.94 52.47 108.45
  Q 53.16 103.87 54.13 99.32
  Q 54.23 98.83 54.62 98.51
  C 56.89 96.57 57.76 93.49 58.84 91.62
  Q 60.34 89.03 61.74 86.41
  Q 63.14 83.79 64.87 81.33
  C 68.54 76.13 71.81 70.13 75.45 65.52
  Q 82.55 56.53 90.66 48.42
  C 94.20 44.89 98.43 42.40 102.07 38.80
  Q 107.14 33.79 112.63 28.76
  Q 113.86 27.64 112.22 27.36
  L 111.34 27.21
  Q 109.70 26.93 108.54 28.11
  Q 103.55 33.20 97.56 37.03
  Q 97.04 37.36 96.78 36.80
  Q 96.61 36.43 97.11 35.86
  Q 99.86 32.76 102.00 29.76
  Q 102.70 28.79 101.78 29.55
  C 85.53 43.06 71.76 56.37 58.83 74.74
  Q 58.73 74.88 58.86 75.00
  L 59.09 75.23
  Q 59.30 75.43 59.52 75.26
  L 64.40 71.38
  A 0.41 0.41 0.0 0 1 65.05 71.81
  Q 64.60 73.45 63.51 75.74
  Q 58.76 85.76 55.63 91.37
  C 53.96 94.36 53.61 96.14 51.77 98.57
  Z
  M 192.09 59.66
  C 193.52 57.54 195.27 55.41 196.51 53.40
  Q 202.20 44.18 205.46 33.80
  Q 206.49 30.50 204.11 28.61
  A 0.54 0.53 24.4 0 0 203.25 28.93
  C 201.08 40.92 193.48 56.87 184.72 65.48
  Q 180.25 69.87 175.96 74.44
  Q 175.95 74.46 175.87 74.75
  Q 175.80 75.02 176.29 75.00
  A 0.54 0.53 -62.3 0 0 176.60 74.90
  C 181.81 71.42 189.70 66.62 190.78 62.85
  Q 191.40 60.68 192.09 59.66
  Z
  M 86.38 107.46
  Q 86.74 113.41 88.83 118.97
  Q 88.91 119.17 89.11 119.11
  Q 89.24 119.07 89.33 118.95
  Q 89.44 118.80 89.42 118.52
  Q 88.68 107.06 91.92 96.05
  Q 93.54 90.52 95.17 84.83
  A 0.38 0.38 0.0 0 0 94.67 84.37
  Q 94.08 84.59 93.05 85.79
  Q 94.61 77.23 100.06 70.52
  Q 100.37 70.13 100.85 70.01
  Q 103.36 69.36 104.06 68.32
  Q 111.34 57.39 118.85 46.62
  C 121.17 43.30 125.58 37.96 128.39 33.14
  Q 128.67 32.67 128.68 32.30
  A 0.51 0.51 0.0 0 0 127.89 31.86
  C 119.14 37.83 111.64 46.97 106.05 55.89
  Q 105.47 56.83 105.50 55.73
  L 105.56 53.68
  A 0.73 0.72 65.8 0 0 104.28 53.19
  L 94.93 64.50
  A 0.41 0.35 -71.0 0 1 94.69 64.64
  L 94.39 64.69
  Q 93.61 64.82 94.03 64.15
  L 100.70 53.52
  A 0.31 0.30 15.6 0 0 100.43 53.05
  L 99.95 53.06
  A 0.83 0.82 -71.2 0 0 99.33 53.37
  L 91.52 63.28
  Q 89.52 65.81 90.60 62.78
  Q 90.74 62.40 91.93 60.65
  Q 99.80 49.06 108.68 38.21
  Q 110.21 36.34 110.87 34.71
  Q 111.42 33.34 110.08 33.98
  Q 107.75 35.10 105.77 37.04
  Q 94.11 48.50 84.52 61.68
  C 80.75 66.87 77.55 72.65 74.39 78.37
  Q 67.31 91.17 63.31 105.23
  Q 62.00 109.86 60.56 114.43
  Q 60.18 115.64 61.01 116.30
  A 0.77 0.77 0.0 0 0 62.18 116.06
  Q 65.79 109.40 68.13 102.25
  Q 68.54 101.01 69.55 99.49
  Q 70.45 98.15 70.88 96.74
  Q 72.74 90.65 76.94 85.43
  Q 78.15 83.94 78.13 85.86
  Q 78.13 86.06 77.99 86.88
  Q 77.90 87.38 77.69 87.86
  Q 72.69 99.22 68.19 110.77
  Q 66.75 114.44 65.80 118.27
  Q 65.78 118.36 65.86 118.40
  Q 65.99 118.45 66.12 118.46
  Q 66.40 118.47 66.53 118.23
  C 70.77 110.27 73.52 103.58 76.39 98.63
  C 78.42 95.13 82.50 84.89 85.96 83.16
  Q 87.41 82.43 86.86 83.96
  Q 84.23 91.24 81.06 98.35
  Q 80.46 99.69 80.30 101.84
  A 1.61 1.60 -24.2 0 1 79.98 102.67
  C 79.07 103.89 79.41 105.38 79.11 106.47
  Q 78.09 110.16 76.95 113.81
  Q 76.26 116.04 76.20 117.52
  Q 76.13 119.20 76.91 117.71
  C 78.81 114.08 80.35 110.21 82.38 106.45
  Q 84.21 103.06 84.01 106.91
  Q 83.91 108.66 84.47 111.49
  Q 84.61 112.21 85.00 112.42
  Q 85.55 112.73 85.65 112.10
  L 86.38 107.46
  Z
  M 227.40 45.50
  C 227.66 46.96 227.38 49.23 228.31 50.35
  Q 229.04 51.23 229.12 50.09
  L 229.46 45.36
  A 0.83 0.82 32.2 0 1 231.00 45.01
  C 238.86 58.83 240.51 71.52 241.75 87.37
  C 242.54 97.61 242.21 108.36 242.07 118.90
  Q 242.06 119.13 242.14 119.32
  Q 242.25 119.57 242.36 119.70
  A 0.45 0.44 32.4 0 0 243.13 119.53
  C 245.18 112.16 245.34 104.56 246.03 97.00
  Q 246.85 88.01 246.17 79.01
  Q 244.60 58.18 231.01 42.49
  C 229.15 40.35 229.41 37.90 228.94 35.53
  Q 228.57 33.68 227.98 35.47
  Q 226.45 40.09 227.40 45.50
  Z
  M 41.99 105.14
  C 42.15 105.71 42.10 106.44 42.40 107.07
  A 0.55 0.55 0.0 0 0 43.36 107.13
  Q 44.68 105.08 45.10 102.51
  C 46.85 91.71 48.98 82.55 55.83 74.32
  C 66.58 61.40 77.03 48.31 88.49 36.29
  Q 90.94 33.72 88.03 35.76
  C 75.40 44.60 65.24 57.58 54.84 69.41
  Q 46.92 78.43 44.67 83.27
  C 41.71 89.64 40.03 98.05 41.99 105.14
  Z
  M 62.19 42.87
  C 59.22 46.19 56.35 49.34 54.19 53.01
  Q 53.44 54.29 54.51 53.26
  Q 61.08 47.02 66.61 39.84
  Q 67.39 38.84 66.29 39.47
  Q 64.09 40.75 62.19 42.87
  Z
  M 131.99 106.63
  Q 143.60 90.15 156.50 74.65
  C 160.42 69.94 162.33 64.04 165.64 58.97
  C 167.91 55.51 170.62 51.76 172.03 47.85
  C 172.99 45.18 174.23 43.36 174.87 40.15
  Q 174.96 39.67 174.47 39.66
  C 171.82 39.62 170.06 45.31 169.60 47.45
  C 168.85 50.90 167.72 53.62 165.48 55.73
  Q 162.34 58.70 153.27 66.41
  Q 149.83 69.34 147.40 72.74
  Q 132.32 93.89 121.78 117.69
  Q 121.31 118.75 120.89 119.84
  Q 120.69 120.36 121.23 120.46
  Q 121.71 120.56 121.96 120.20
  C 124.26 116.82 126.96 114.04 128.97 111.03
  Q 130.45 108.81 131.99 106.63
  Z
  M 229.63 91.92
  L 231.34 117.74
  Q 231.63 122.11 233.05 117.97
  C 237.72 104.35 241.41 88.04 237.71 74.10
  C 236.15 68.24 234.92 61.54 232.01 56.17
  A 0.31 0.31 0.0 0 0 231.43 56.32
  C 231.42 61.84 232.10 67.72 231.71 72.70
  Q 231.09 80.53 229.78 88.33
  C 229.55 82.03 230.14 75.74 228.75 69.58
  C 227.60 64.51 226.79 58.02 224.38 53.98
  Q 223.36 52.26 223.44 54.26
  C 223.66 59.06 225.56 64.74 225.91 69.82
  Q 226.99 85.43 226.22 91.50
  Q 225.35 98.42 225.60 105.39
  A 0.38 0.38 0.0 0 0 226.20 105.68
  Q 226.34 105.58 226.52 105.32
  Q 226.64 105.14 226.68 104.89
  Q 227.17 102.12 227.60 99.34
  Q 227.67 98.87 228.01 98.53
  C 229.26 97.29 229.33 94.61 229.63 91.92
  Z
  M 256.91 92.21
  Q 256.97 88.70 257.01 83.50
  Q 257.14 67.30 248.20 54.54
  Q 247.11 52.99 247.18 54.88
  C 247.29 58.20 247.51 61.61 248.14 65.01
  C 249.89 74.44 251.29 83.65 255.30 92.54
  Q 256.84 95.97 256.91 92.21
  Z
  M 189.93 81.79
  Q 180.53 89.56 177.71 93.74
  C 174.92 97.87 171.54 103.87 172.10 107.63
  C 172.96 113.44 173.46 119.19 175.01 124.89
  C 175.41 126.34 176.25 127.24 177.80 126.56
  Q 178.21 126.38 178.21 125.93
  Q 178.17 123.34 178.54 120.75
  C 179.32 115.31 179.63 109.50 181.21 104.51
  Q 184.83 93.06 191.84 82.88
  Q 190.30 87.48 186.65 94.00
  Q 179.60 106.62 181.11 122.51
  A 1.06 1.03 -67.7 0 0 181.33 123.06
  Q 182.75 124.90 183.41 122.43
  Q 183.36 124.21 183.57 124.75
  Q 184.55 127.28 185.30 124.67
  Q 186.31 121.17 186.74 117.17
  Q 187.33 111.72 187.74 109.62
  Q 189.29 101.58 191.16 92.45
  Q 192.81 87.67 196.21 81.30
  Q 198.23 77.52 200.64 74.03
  Q 202.54 71.30 202.72 74.62
  C 203.16 82.71 200.75 91.73 202.80 99.56
  Q 203.50 102.22 203.59 103.25
  Q 204.43 112.93 205.72 122.58
  A 0.81 0.80 21.2 0 0 205.92 123.02
  Q 206.50 123.66 206.97 123.22
  Q 207.14 123.06 207.21 122.73
  C 208.81 114.41 205.67 106.31 206.32 97.89
  A 0.58 0.58 0.0 0 1 207.25 97.47
  Q 207.87 97.94 207.98 99.01
  Q 208.10 100.33 208.52 101.57
  C 209.22 103.68 209.20 105.65 210.21 107.69
  Q 210.44 108.16 210.35 108.66
  Q 210.21 109.54 210.83 110.22
  Q 211.69 111.16 211.62 109.89
  C 211.39 106.07 210.51 102.44 209.89 98.67
  Q 209.62 96.98 209.07 95.36
  C 207.90 91.86 209.02 88.18 209.14 84.27
  Q 209.29 79.60 212.15 75.21
  Q 211.28 83.40 211.75 91.63
  C 212.15 98.81 215.17 105.41 215.69 112.54
  Q 215.88 115.23 216.12 117.67
  Q 216.30 119.62 216.85 117.74
  Q 217.16 116.71 217.37 114.98
  Q 219.65 96.32 219.22 77.54
  Q 219.14 74.23 218.56 69.49
  Q 218.10 65.72 217.71 61.45
  Q 216.60 61.54 218.09 60.24
  Q 218.58 59.82 218.63 60.46
  C 219.26 68.39 220.14 76.23 220.13 84.19
  C 220.12 93.85 220.01 102.17 221.68 112.77
  Q 221.77 113.40 222.38 113.60
  L 222.73 113.72
  A 0.30 0.30 0.0 0 0 223.12 113.44
  C 222.98 105.41 223.86 96.33 223.86 89.51
  Q 223.87 83.38 223.69 77.25
  Q 223.40 66.67 219.77 56.56
  A 0.69 0.69 0.0 0 0 218.70 56.24
  Q 217.34 57.29 216.09 58.84
  Q 211.44 64.62 208.84 71.59
  Q 207.60 74.88 207.03 76.09
  Q 205.11 80.13 205.55 75.67
  Q 205.97 71.51 206.83 67.02
  C 207.28 64.68 208.43 61.76 208.75 58.99
  A 0.69 0.69 0.0 0 0 207.75 58.30
  Q 190.71 67.27 177.33 80.63
  C 174.98 82.97 171.98 85.13 169.53 87.70
  Q 169.52 87.72 168.92 88.20
  Q 168.61 88.46 168.52 88.91
  Q 168.43 89.38 168.12 89.72
  C 163.43 94.92 160.41 99.05 157.52 102.36
  C 155.46 104.73 154.01 107.48 151.86 109.86
  Q 150.37 111.52 146.96 118.92
  Q 145.57 121.93 145.78 125.08
  A 0.96 0.95 -19.2 0 0 147.27 125.80
  Q 147.87 125.40 148.36 124.74
  Q 148.54 124.49 148.74 124.42
  Q 148.93 124.36 149.10 124.38
  Q 149.62 124.44 149.62 124.97
  L 149.62 126.03
  Q 149.62 129.15 150.80 126.26
  Q 151.85 123.70 152.41 120.98
  A 0.96 0.95 86.9 0 1 153.06 120.25
  L 153.43 120.12
  A 0.38 0.37 -6.9 0 1 153.92 120.50
  Q 153.68 123.80 153.80 126.30
  Q 153.92 128.78 154.89 126.49
  C 156.71 122.16 157.24 117.34 158.99 113.17
  C 160.50 109.58 161.82 104.89 164.25 101.88
  Q 164.49 101.57 165.88 99.40
  C 166.73 98.07 168.10 97.11 168.75 95.52
  Q 168.93 95.07 169.29 94.77
  Q 170.80 93.49 172.90 90.76
  Q 174.51 88.67 179.06 84.70
  Q 179.37 84.43 179.59 83.99
  Q 179.85 83.47 180.09 83.23
  C 187.50 75.86 196.06 67.96 205.07 62.61
  A 0.64 0.64 0.0 0 1 205.82 62.68
  Q 206.48 63.29 205.83 63.82
  Q 205.47 64.12 205.32 64.34
  Q 201.72 69.92 197.16 74.69
  Q 194.85 77.11 191.30 79.02
  C 185.35 82.23 181.25 84.89 176.75 89.87
  C 175.89 90.82 175.65 92.11 174.70 93.19
  C 172.63 95.55 171.64 97.96 170.69 100.92
  Q 170.64 101.07 170.49 101.14
  Q 170.35 101.21 170.22 101.28
  Q 170.12 101.33 170.13 101.44
  C 170.25 102.91 169.48 103.80 169.17 104.91
  Q 167.19 111.97 168.72 118.73
  Q 169.73 123.22 169.84 118.62
  Q 169.92 115.28 170.26 110.34
  C 170.40 108.34 171.13 106.40 171.44 104.33
  Q 171.51 103.83 171.83 103.44
  Q 172.38 102.78 172.39 101.96
  Q 172.39 101.47 172.61 101.04
  L 174.88 96.55
  Q 175.09 96.14 175.47 95.89
  C 175.97 95.57 176.17 95.40 176.46 94.83
  Q 177.58 92.60 180.73 89.08
  C 183.75 85.72 186.18 82.73 189.93 81.79
  Z
  M 38.25 118.18
  Q 38.80 119.71 37.74 118.48
  Q 32.56 112.42 31.67 104.30
  C 31.33 101.20 32.32 98.32 33.08 95.29
  Q 33.88 92.08 34.36 88.53
  C 35.32 81.39 36.81 75.34 40.43 69.22
  C 42.47 65.79 45.54 62.69 48.36 59.76
  Q 49.83 58.24 47.96 59.24
  C 42.04 62.42 37.48 68.70 34.91 74.83
  C 32.62 80.29 31.67 87.74 30.72 94.16
  Q 30.54 95.39 29.81 94.27
  Q 29.48 93.78 29.56 92.25
  Q 29.86 86.18 30.22 81.89
  Q 30.56 77.89 28.96 81.57
  Q 27.63 84.65 27.21 89.25
  C 25.88 103.55 29.65 120.90 42.77 128.90
  Q 45.37 130.48 48.25 129.52
  L 49.38 129.14
  Q 52.17 128.20 49.86 126.37
  C 46.46 123.70 43.27 120.80 42.15 117.84
  C 38.94 109.40 37.69 102.00 40.16 91.99
  C 42.54 82.31 46.88 73.39 51.29 64.50
  Q 51.39 64.30 51.20 64.19
  L 51.19 64.19
  Q 51.01 64.08 50.88 64.26
  Q 40.94 78.53 36.91 95.50
  C 36.32 97.98 34.31 100.24 34.30 103.31
  C 34.28 108.57 36.59 113.49 38.25 118.18
  Z
  M 65.28 81.90
  C 59.58 90.04 56.01 99.08 54.03 108.79
  C 53.00 113.85 55.61 118.17 58.08 123.46
  Q 58.26 123.85 58.66 123.88
  A 0.44 0.44 0.0 0 0 59.14 123.45
  C 59.28 119.70 59.28 115.90 60.16 112.26
  C 63.83 97.23 69.89 81.64 78.93 68.96
  Q 79.03 68.82 78.90 68.71
  L 78.71 68.55
  Q 78.39 68.28 78.10 68.57
  C 73.77 72.86 68.73 76.98 65.28 81.90
  Z
  M 201.40 90.35
  C 202.15 85.90 202.10 81.34 202.15 75.76
  Q 202.15 75.62 202.01 75.62
  Q 201.85 75.62 201.70 75.62
  A 0.57 0.57 0.0 0 0 201.15 76.08
  Q 200.89 77.28 200.11 78.72
  C 193.76 90.42 194.69 103.67 198.56 116.07
  Q 200.36 121.82 200.32 115.79
  C 200.29 110.95 200.23 106.00 200.73 100.58
  C 201.05 97.18 200.83 93.70 201.40 90.35
  Z
  M 138.96 121.49
  Q 138.76 121.83 138.81 122.07
  A 0.53 0.53 0.0 0 0 139.74 122.29
  C 144.04 117.19 148.74 112.65 152.73 107.20
  Q 159.96 97.31 168.00 88.34
  Q 169.13 87.08 167.47 87.40
  C 154.86 89.82 141.95 109.39 139.19 120.96
  Q 139.13 121.19 138.96 121.49
  Z
  M 166.67 101.07
  C 161.76 105.92 159.24 114.29 157.29 120.73
  A 2.49 2.47 38.7 0 0 157.51 122.68
  L 157.82 123.25
  Q 158.35 124.18 158.66 123.16
  Q 162.39 111.06 167.72 102.32
  C 167.93 101.97 168.03 101.35 168.02 100.99
  A 0.64 0.64 0.0 0 0 167.18 100.40
  Q 166.98 100.47 166.91 100.61
  A 0.52 0.01 -63.4 0 1 166.67 101.07
  Z"
/>
<path fill="#9B9B9B" d="
  M 181.54 15.04
  Q 180.85 16.84 179.50 16.27
  A 1.20 1.19 32.5 0 1 179.07 14.37
  L 181.10 12.10
  Q 182.15 10.93 180.65 11.41
  Q 175.65 12.99 170.03 15.13
  Q 167.66 16.03 165.03 18.49
  A 0.86 0.85 -39.6 0 1 163.75 18.37
  Q 163.63 18.20 163.60 17.95
  Q 163.59 17.76 163.68 17.54
  Q 165.41 13.52 167.62 10.28
  Q 168.25 9.34 167.22 9.81
  Q 164.15 11.22 160.97 12.87
  C 158.73 14.04 156.70 13.59 154.89 12.13
  L 157.17 12.01
  Q 157.67 11.99 157.91 12.44
  Q 158.32 13.21 159.17 13.13
  Q 159.69 13.09 159.94 12.64
  Q 160.22 12.13 160.78 12.01
  Q 161.46 11.86 161.65 11.76
  Q 165.31 9.94 168.72 8.10
  Q 169.89 7.47 169.51 8.75
  Q 168.93 10.75 167.33 12.05
  Q 166.99 12.33 166.99 12.77
  L 166.98 13.23
  A 0.68 0.66 -14.2 0 1 166.62 13.82
  Q 165.69 14.30 166.02 15.46
  Q 166.12 15.82 166.47 15.95
  Q 167.62 16.39 168.08 15.42
  A 0.71 0.69 -77.2 0 1 168.71 15.01
  L 169.23 15.02
  A 0.91 0.91 0.0 0 0 170.02 14.56
  Q 170.41 13.91 171.21 14.01
  Q 171.66 14.06 171.94 13.69
  Q 172.34 13.15 172.98 13.05
  C 174.82 12.77 176.81 11.89 178.58 11.26
  C 179.65 10.88 180.54 9.74 182.20 10.03
  A 0.99 0.99 0.0 0 1 182.72 11.71
  L 180.07 14.32
  Q 179.57 14.82 180.26 14.98
  Q 180.85 15.12 181.54 15.04
  Z"
/>
<path fill="#9B9B9B" d="
  M 119.81 12.96
  L 115.05 17.29
  A 0.84 0.83 22.1 0 1 114.50 17.52
  Q 112.63 17.56 113.71 16.32
  Q 115.24 14.55 115.53 13.08
  Q 115.92 11.11 114.42 12.45
  L 110.19 16.24
  Q 109.82 16.57 109.33 16.65
  L 109.01 16.71
  C 111.82 13.32 116.30 9.36 120.58 8.28
  Q 120.89 8.20 120.94 8.52
  L 121.00 8.94
  Q 121.06 9.39 120.65 9.58
  Q 117.71 10.95 115.90 13.71
  A 0.90 0.89 46.6 0 0 115.88 14.65
  L 116.06 14.95
  A 0.25 0.25 0.0 0 0 116.48 14.97
  Q 117.90 13.07 119.81 12.96
  Z"
/>
<path fill="#9B9B9B" d="
  M 133.41 11.11
  Q 128.93 14.42 123.59 15.91
  Q 123.08 16.05 122.62 15.77
  Q 120.92 14.72 122.00 12.44
  Q 122.22 11.98 122.14 11.74
  Q 122.01 11.37 121.48 11.21
  Q 121.85 10.49 122.50 10.20
  Q 123.00 9.98 123.00 10.52
  L 123.00 14.44
  Q 123.00 14.82 123.36 14.94
  Q 124.55 15.36 125.15 14.46
  Q 125.45 14.01 125.99 14.00
  L 126.66 14.00
  Q 127.20 14.00 127.69 13.77
  L 133.41 11.11
  Z"
/>
<path fill="#9B9B9B" d="
  M 144.56 16.10
  Q 144.35 17.56 142.68 17.04
  C 141.26 16.60 140.21 14.96 139.28 13.72
  A 0.84 0.84 0.0 0 0 138.05 13.60
  L 135.05 16.25
  A 0.92 0.92 0.0 0 1 133.52 15.58
  Q 133.47 13.91 134.43 12.00
  Q 134.92 11.04 133.99 10.69
  Q 134.36 9.78 135.39 10.04
  Q 135.91 10.17 136.02 10.70
  Q 136.21 11.56 135.52 11.95
  A 0.99 0.96 79.3 0 0 135.03 12.69
  Q 134.90 13.76 135.03 14.48
  Q 135.28 15.85 135.97 14.64
  Q 136.97 12.90 138.94 12.96
  A 1.18 1.16 68.0 0 1 139.70 13.29
  L 142.05 15.62
  Q 142.39 15.96 142.88 15.99
  L 144.56 16.10
  Z"
/>
<path fill="#9B9B9B" d="
  M 109.01 16.71
  Q 109.35 18.06 107.31 18.75
  A 0.65 0.65 0.0 0 1 106.46 18.00
  L 106.95 15.77
  Q 107.07 15.21 106.58 15.50
  Q 103.09 17.62 99.99 20.50
  Q 99.65 20.81 99.26 20.47
  C 101.34 17.33 105.39 15.59 108.33 13.32
  A 0.37 0.36 -30.2 0 1 108.89 13.46
  L 109.06 13.86
  A 0.58 0.57 -27.4 0 1 108.83 14.57
  Q 107.73 15.24 108.00 16.59
  A 0.47 0.47 0.0 0 0 108.73 16.89
  L 109.01 16.71
  Z"
/>
<path fill="#9B9B9B" d="
  M 99.03 20.76
  Q 98.46 22.43 96.74 22.39
  Q 96.15 22.38 96.17 21.80
  Q 96.20 21.04 95.89 20.33
  A 0.65 0.65 0.0 0 0 94.87 20.11
  L 75.61 37.03
  Q 79.65 32.68 83.82 28.51
  C 87.84 24.50 92.26 21.24 96.85 17.99
  A 0.66 0.66 0.0 0 1 97.87 18.35
  Q 98.20 19.49 97.31 20.24
  Q 96.77 20.70 97.44 20.94
  Q 98.21 21.22 99.03 20.76
  Z"
/>
<path fill="#9B9B9B" d="
  M 117.21 94.91
  C 120.02 89.11 122.58 83.61 126.49 78.31
  Q 131.44 71.60 136.07 65.05
  Q 137.29 63.32 135.52 64.49
  Q 134.48 65.18 132.88 66.87
  C 119.97 80.58 108.75 95.16 101.79 112.75
  L 100.54 113.69
  Q 100.05 114.06 99.90 113.46
  Q 99.76 112.93 99.94 112.27
  Q 102.07 104.45 106.43 98.15
  C 107.83 96.12 108.35 94.19 109.22 91.97
  Q 113.84 84.56 119.33 77.90
  Q 120.09 76.97 122.73 73.44
  Q 124.37 71.24 126.39 69.20
  Q 135.47 60.95 145.20 53.11
  C 150.53 48.82 154.84 43.73 159.71 38.91
  C 162.97 35.68 163.64 31.47 165.10 27.37
  A 0.44 0.44 0.0 0 0 164.78 26.80
  Q 164.64 26.76 164.50 26.72
  Q 164.23 26.64 163.98 26.78
  Q 159.83 29.02 157.57 33.18
  Q 157.33 33.60 156.85 33.64
  Q 156.27 33.68 155.96 33.18
  Q 155.65 32.69 155.11 32.93
  Q 154.33 33.29 154.01 34.30
  Q 149.42 37.66 145.10 41.37
  C 141.07 44.82 136.65 51.27 132.68 53.93
  Q 128.45 56.77 127.47 57.97
  Q 121.56 65.22 115.70 72.48
  Q 113.10 75.71 111.18 81.03
  Q 103.27 92.46 98.46 106.06
  Q 96.89 109.68 96.58 111.23
  Q 95.52 116.48 93.19 121.28
  Q 92.92 121.84 92.28 121.53
  A 0.51 0.48 -80.3 0 1 92.00 121.11
  Q 91.37 111.90 93.35 103.00
  C 98.06 81.80 109.29 61.96 123.33 45.57
  Q 128.38 39.66 133.66 33.94
  Q 134.41 33.13 134.75 33.10
  Q 136.24 32.96 135.95 34.43
  C 134.35 42.44 127.08 46.87 123.82 54.06
  Q 123.21 55.40 124.48 54.65
  C 129.00 51.94 132.12 48.90 135.02 44.08
  C 138.54 38.22 142.34 32.94 144.84 26.22
  C 145.54 24.34 146.88 22.74 148.39 21.70
  Q 150.51 20.24 149.46 22.59
  C 147.25 27.49 143.89 31.95 141.90 36.86
  Q 141.11 38.83 142.65 37.37
  C 144.74 35.40 147.27 34.99 149.76 33.69
  C 152.51 32.25 154.97 29.91 157.58 27.99
  C 161.29 25.27 165.72 24.37 169.19 21.30
  Q 171.14 19.58 172.94 17.72
  Q 173.08 17.58 173.23 17.70
  L 173.45 17.89
  A 0.51 0.51 0.0 0 1 173.55 18.58
  C 170.03 23.62 166.45 27.96 164.48 33.93
  A 0.29 0.29 0.0 0 0 164.75 34.31
  Q 165.08 34.32 165.28 34.03
  Q 167.53 30.78 170.49 27.19
  Q 171.40 26.07 171.74 27.48
  L 171.94 28.27
  A 3.12 3.12 0.0 0 1 171.42 30.85
  L 165.21 39.32
  Q 164.90 39.74 164.39 39.84
  Q 161.53 40.43 160.82 41.33
  Q 154.80 48.93 148.74 56.50
  Q 146.37 59.46 145.28 61.73
  Q 144.06 64.27 146.04 62.26
  C 149.59 58.67 152.95 54.74 157.01 51.61
  Q 163.30 46.76 169.48 42.00
  A 0.79 0.78 50.7 0 1 170.56 42.11
  L 170.76 42.33
  A 0.52 0.51 48.0 0 1 170.73 43.03
  C 167.44 46.22 163.99 49.32 161.14 52.70
  Q 154.74 60.29 149.11 68.49
  Q 148.74 69.02 148.58 69.66
  A 1.85 1.84 -16.0 0 1 148.14 70.45
  Q 145.88 72.91 144.14 75.72
  C 143.31 77.06 141.94 78.38 141.07 79.92
  C 139.65 82.46 137.94 84.87 136.33 87.29
  C 131.88 93.99 128.33 101.64 124.44 108.71
  C 123.76 109.95 123.40 111.68 122.67 113.09
  C 121.78 114.78 121.57 116.62 120.56 118.29
  Q 120.32 118.68 120.33 119.15
  Q 120.36 121.59 118.98 122.54
  Q 117.63 123.46 117.82 121.84
  L 119.45 107.82
  A 0.60 0.60 0.0 0 0 118.61 107.21
  Q 118.11 107.44 117.77 108.26
  Q 116.65 111.01 115.44 113.72
  C 113.93 117.11 113.15 120.89 111.85 124.25
  Q 111.09 126.21 110.92 124.11
  Q 110.74 121.82 111.73 117.78
  Q 114.04 108.35 116.59 98.98
  Q 117.13 97.00 117.21 94.91
  Z"
/>
<ellipse fill="#9B9B9B" cx="0.00" cy="0.00" transform="translate(196.62,26.61) rotate(105.9)" rx="6.70" ry="1.02"/>
<path fill="#9B9B9B" d="
  M 281.93 244.82
  L 281.21 246.52
  Q 281.07 247.36 281.05 247.36
  A 0.81 0.81 0.0 0 1 280.48 246.43
  C 281.71 239.98 282.75 233.99 284.37 227.44
  Q 287.00 216.83 288.39 207.74
  Q 289.02 203.67 290.32 190.98
  Q 291.26 181.85 292.12 172.73
  Q 294.01 152.70 292.34 135.13
  Q 291.59 127.23 289.35 118.72
  C 285.14 102.74 280.73 88.05 267.59 77.15
  C 260.52 71.28 258.07 58.54 256.59 49.80
  C 255.81 45.24 254.69 40.19 252.75 35.85
  Q 252.65 35.62 252.39 35.62
  L 252.14 35.62
  Q 252.03 35.62 252.05 35.73
  C 252.71 39.65 254.13 44.11 253.79 48.05
  A 0.61 0.60 -64.4 0 1 252.75 48.42
  C 252.03 47.66 251.34 46.80 250.91 45.76
  C 248.30 39.54 244.54 31.24 240.00 26.25
  Q 239.15 25.31 238.51 24.20
  Q 237.77 22.93 237.56 22.88
  Q 235.42 22.40 236.84 24.15
  Q 240.17 28.27 241.24 33.47
  A 0.39 0.38 0.1 0 1 240.78 33.92
  Q 240.06 33.77 240.19 33.20
  C 239.88 28.98 236.70 24.90 234.41 21.68
  Q 233.19 19.96 235.19 20.63
  C 239.23 21.98 244.79 31.50 246.69 35.30
  Q 248.91 39.73 251.09 44.16
  Q 251.67 45.33 252.57 45.74
  Q 253.29 46.07 253.09 45.30
  Q 251.54 39.58 250.87 33.72
  Q 250.68 32.12 251.75 33.32
  C 254.20 36.07 254.82 39.87 255.95 43.37
  C 258.27 50.60 259.14 58.39 261.26 65.25
  C 263.46 72.40 268.46 76.70 273.46 81.96
  C 281.73 90.66 285.07 100.49 288.46 112.12
  C 296.33 139.12 294.08 166.82 290.99 194.49
  C 289.29 209.73 285.98 224.22 282.65 239.14
  C 282.24 240.96 282.20 242.90 281.93 244.82
  Z"
/>
<path fill="#9B9B9B" d="
  M 191.77 40.99
  L 186.98 45.99
  C 177.45 56.02 171.82 63.00 164.94 71.44
  C 156.97 81.21 149.27 91.13 140.91 100.59
  C 134.95 107.35 130.49 114.50 125.39 121.84
  Q 124.31 123.40 124.14 121.51
  Q 124.10 121.00 124.93 120.43
  Q 125.34 120.14 125.51 119.67
  Q 127.53 114.07 131.32 109.50
  C 132.25 108.40 132.20 107.17 133.24 106.18
  C 135.00 104.51 136.53 101.96 137.61 100.59
  C 140.38 97.08 143.29 93.42 145.86 89.78
  Q 150.97 82.52 157.01 76.01
  C 157.95 75.00 158.53 73.42 159.42 72.39
  Q 168.78 61.54 179.08 51.57
  Q 183.80 46.99 185.16 42.11
  Q 187.49 33.74 188.52 31.17
  A 0.47 0.47 0.0 0 0 188.08 30.52
  L 187.80 30.53
  A 1.51 1.50 13.8 0 0 186.49 31.32
  Q 182.81 38.04 179.45 44.93
  Q 178.77 46.34 178.32 46.68
  Q 176.58 48.01 177.27 45.93
  Q 179.25 39.98 180.45 33.46
  C 180.81 31.53 180.91 28.48 181.96 26.02
  Q 182.23 25.38 182.44 26.04
  Q 183.08 28.03 182.90 30.12
  Q 182.59 33.68 184.62 30.74
  Q 186.67 27.78 188.53 23.25
  Q 188.96 22.20 189.78 21.68
  A 0.35 0.35 0.0 0 1 190.31 21.96
  Q 190.62 32.15 186.62 41.46
  A 0.55 0.55 0.0 0 0 187.29 42.20
  C 189.42 41.53 191.72 38.14 193.15 36.78
  Q 196.23 33.84 194.36 37.66
  Q 193.71 39.01 191.77 40.99
  Z"
/>
<path fill="#FEFEFE" d="
  M 176.22 27.27
  C 176.38 29.35 176.69 35.88 174.25 37.48
  Q 173.58 37.92 173.51 37.12
  Q 173.05 31.72 175.66 27.15
  Q 176.14 26.31 176.22 27.27
  Z"
/>
<path fill="#D1D1D1" d="
  M 126.39 69.20
  Q 126.21 67.50 123.84 69.18
  Q 123.10 69.69 122.08 70.75
  Q 116.93 76.07 111.18 81.03
  Q 113.10 75.71 115.70 72.48
  Q 121.56 65.22 127.47 57.97
  Q 128.45 56.77 132.68 53.93
  C 136.65 51.27 141.07 44.82 145.10 41.37
  Q 149.42 37.66 154.01 34.30
  L 148.89 47.50
  Q 148.08 49.60 149.89 48.26
  C 155.01 44.46 153.87 40.11 154.66 34.67
  A 0.37 0.37 0.0 0 0 154.33 34.25
  Q 154.19 34.23 154.01 34.30
  Q 154.33 33.29 155.11 32.93
  Q 155.65 32.69 155.96 33.18
  Q 156.27 33.68 156.85 33.64
  Q 157.33 33.60 157.57 33.18
  Q 159.83 29.02 163.98 26.78
  Q 164.23 26.64 164.50 26.72
  Q 164.64 26.76 164.78 26.80
  A 0.44 0.44 0.0 0 1 165.10 27.37
  C 163.64 31.47 162.97 35.68 159.71 38.91
  C 154.84 43.73 150.53 48.82 145.20 53.11
  Q 135.47 60.95 126.39 69.20
  Z"
/>
<path fill="#9B9B9B" d="
  M 50.72 101.21
  L 51.77 98.57
  C 53.61 96.14 53.96 94.36 55.63 91.37
  Q 58.76 85.76 63.51 75.74
  Q 64.60 73.45 65.05 71.81
  A 0.41 0.41 0.0 0 0 64.40 71.38
  L 59.52 75.26
  Q 59.30 75.43 59.09 75.23
  L 58.86 75.00
  Q 58.73 74.88 58.83 74.74
  C 71.76 56.37 85.53 43.06 101.78 29.55
  Q 102.70 28.79 102.00 29.76
  Q 99.86 32.76 97.11 35.86
  Q 96.61 36.43 96.78 36.80
  Q 97.04 37.36 97.56 37.03
  Q 103.55 33.20 108.54 28.11
  Q 109.70 26.93 111.34 27.21
  L 112.22 27.36
  Q 113.86 27.64 112.63 28.76
  Q 107.14 33.79 102.07 38.80
  C 98.43 42.40 94.20 44.89 90.66 48.42
  Q 82.55 56.53 75.45 65.52
  C 71.81 70.13 68.54 76.13 64.87 81.33
  Q 63.14 83.79 61.74 86.41
  Q 60.34 89.03 58.84 91.62
  C 57.76 93.49 56.89 96.57 54.62 98.51
  Q 54.23 98.83 54.13 99.32
  Q 53.16 103.87 52.47 108.45
  C 51.80 112.94 53.55 117.59 53.43 121.95
  Q 53.34 125.14 52.13 122.19
  Q 49.48 115.71 49.37 108.82
  C 49.33 106.34 50.23 103.75 50.72 101.21
  Z"
/>
<path fill="#9B9B9B" d="
  M 190.78 62.85
  C 189.70 66.62 181.81 71.42 176.60 74.90
  A 0.54 0.53 -62.3 0 1 176.29 75.00
  Q 175.80 75.02 175.87 74.75
  Q 175.95 74.46 175.96 74.44
  Q 180.25 69.87 184.72 65.48
  C 193.48 56.87 201.08 40.92 203.25 28.93
  A 0.54 0.53 24.4 0 1 204.11 28.61
  Q 206.49 30.50 205.46 33.80
  Q 202.20 44.18 196.51 53.40
  C 195.27 55.41 193.52 57.54 192.09 59.66
  Q 191.40 60.68 190.78 62.85
  Z"
/>
<path fill="#9B9B9B" d="
  M 71.21 41.45
  Q 71.04 42.99 69.59 43.96
  Q 69.23 44.20 68.95 44.54
  Q 68.54 45.02 68.05 45.35
  A 0.41 0.41 0.0 0 1 67.42 44.93
  C 68.36 40.37 72.14 35.75 74.69 31.88
  A 0.30 0.30 0.0 0 0 74.26 31.47
  L 58.79 42.88
  Q 66.86 34.54 76.01 29.62
  Q 78.31 28.38 76.77 30.50
  C 74.47 33.65 72.27 37.60 69.59 40.77
  C 69.02 41.44 68.76 41.78 69.00 42.63
  Q 69.16 43.18 69.60 42.81
  L 71.21 41.45
  Z"
/>
<path fill="#9B9B9B" d="
  M 93.05 85.79
  Q 89.95 91.75 88.38 95.63
  Q 86.21 100.95 86.38 107.46
  L 85.65 112.10
  Q 85.55 112.73 85.00 112.42
  Q 84.61 112.21 84.47 111.49
  Q 83.91 108.66 84.01 106.91
  Q 84.21 103.06 82.38 106.45
  C 80.35 110.21 78.81 114.08 76.91 117.71
  Q 76.13 119.20 76.20 117.52
  Q 76.26 116.04 76.95 113.81
  Q 78.09 110.16 79.11 106.47
  C 79.41 105.38 79.07 103.89 79.98 102.67
  A 1.61 1.60 -24.2 0 0 80.30 101.84
  Q 80.46 99.69 81.06 98.35
  Q 84.23 91.24 86.86 83.96
  Q 87.41 82.43 85.96 83.16
  C 82.50 84.89 78.42 95.13 76.39 98.63
  C 73.52 103.58 70.77 110.27 66.53 118.23
  Q 66.40 118.47 66.12 118.46
  Q 65.99 118.45 65.86 118.40
  Q 65.78 118.36 65.80 118.27
  Q 66.75 114.44 68.19 110.77
  Q 72.69 99.22 77.69 87.86
  Q 77.90 87.38 77.99 86.88
  Q 78.13 86.06 78.13 85.86
  Q 78.15 83.94 76.94 85.43
  Q 72.74 90.65 70.88 96.74
  Q 70.45 98.15 69.55 99.49
  Q 68.54 101.01 68.13 102.25
  Q 65.79 109.40 62.18 116.06
  A 0.77 0.77 0.0 0 1 61.01 116.30
  Q 60.18 115.64 60.56 114.43
  Q 62.00 109.86 63.31 105.23
  Q 67.31 91.17 74.39 78.37
  C 77.55 72.65 80.75 66.87 84.52 61.68
  Q 94.11 48.50 105.77 37.04
  Q 107.75 35.10 110.08 33.98
  Q 111.42 33.34 110.87 34.71
  Q 110.21 36.34 108.68 38.21
  Q 99.80 49.06 91.93 60.65
  Q 90.74 62.40 90.60 62.78
  Q 89.52 65.81 91.52 63.28
  L 99.33 53.37
  A 0.83 0.82 -71.2 0 1 99.95 53.06
  L 100.43 53.05
  A 0.31 0.30 15.6 0 1 100.70 53.52
  L 94.03 64.15
  Q 93.61 64.82 94.39 64.69
  L 94.69 64.64
  A 0.41 0.35 -71.0 0 0 94.93 64.50
  L 104.28 53.19
  A 0.73 0.72 65.8 0 1 105.56 53.68
  L 105.50 55.73
  Q 105.47 56.83 106.05 55.89
  C 111.64 46.97 119.14 37.83 127.89 31.86
  A 0.51 0.51 0.0 0 1 128.68 32.30
  Q 128.67 32.67 128.39 33.14
  C 125.58 37.96 121.17 43.30 118.85 46.62
  Q 111.34 57.39 104.06 68.32
  Q 103.36 69.36 100.85 70.01
  Q 100.37 70.13 100.06 70.52
  Q 94.61 77.23 93.05 85.79
  Z"
/>
<path fill="#FEFEFE" d="
  M 154.01 34.30
  Q 154.19 34.23 154.33 34.25
  A 0.37 0.37 0.0 0 1 154.66 34.67
  C 153.87 40.11 155.01 44.46 149.89 48.26
  Q 148.08 49.60 148.89 47.50
  L 154.01 34.30
  Z"
/>
<path fill="#9B9B9B" d="
  M 227.40 45.50
  Q 226.45 40.09 227.98 35.47
  Q 228.57 33.68 228.94 35.53
  C 229.41 37.90 229.15 40.35 231.01 42.49
  Q 244.60 58.18 246.17 79.01
  Q 246.85 88.01 246.03 97.00
  C 245.34 104.56 245.18 112.16 243.13 119.53
  A 0.45 0.44 32.4 0 1 242.36 119.70
  Q 242.25 119.57 242.14 119.32
  Q 242.06 119.13 242.07 118.90
  C 242.21 108.36 242.54 97.61 241.75 87.37
  C 240.51 71.52 238.86 58.83 231.00 45.01
  A 0.83 0.82 32.2 0 0 229.46 45.36
  L 229.12 50.09
  Q 229.04 51.23 228.31 50.35
  C 227.38 49.23 227.66 46.96 227.40 45.50
  Z"
/>
<path fill="#9B9B9B" d="
  M 41.99 105.14
  C 40.03 98.05 41.71 89.64 44.67 83.27
  Q 46.92 78.43 54.84 69.41
  C 65.24 57.58 75.40 44.60 88.03 35.76
  Q 90.94 33.72 88.49 36.29
  C 77.03 48.31 66.58 61.40 55.83 74.32
  C 48.98 82.55 46.85 91.71 45.10 102.51
  Q 44.68 105.08 43.36 107.13
  A 0.55 0.55 0.0 0 1 42.40 107.07
  C 42.10 106.44 42.15 105.71 41.99 105.14
  Z"
/>
<path fill="#9B9B9B" d="
  M 62.19 42.87
  Q 64.09 40.75 66.29 39.47
  Q 67.39 38.84 66.61 39.84
  Q 61.08 47.02 54.51 53.26
  Q 53.44 54.29 54.19 53.01
  C 56.35 49.34 59.22 46.19 62.19 42.87
  Z"
/>
<path fill="#FEFEFE" d="
  M 131.99 106.63
  Q 130.45 108.81 128.97 111.03
  C 126.96 114.04 124.26 116.82 121.96 120.20
  Q 121.71 120.56 121.23 120.46
  Q 120.69 120.36 120.89 119.84
  Q 121.31 118.75 121.78 117.69
  Q 132.32 93.89 147.40 72.74
  Q 149.83 69.34 153.27 66.41
  Q 162.34 58.70 165.48 55.73
  C 167.72 53.62 168.85 50.90 169.60 47.45
  C 170.06 45.31 171.82 39.62 174.47 39.66
  Q 174.96 39.67 174.87 40.15
  C 174.23 43.36 172.99 45.18 172.03 47.85
  C 170.62 51.76 167.91 55.51 165.64 58.97
  C 162.33 64.04 160.42 69.94 156.50 74.65
  Q 143.60 90.15 131.99 106.63
  Z"
/>
<path fill="#FEFEFE" d="
  M 191.77 40.99
  Q 190.94 44.36 190.05 47.34
  Q 189.08 50.59 187.44 53.31
  C 182.70 61.19 175.19 70.21 167.06 75.15
  A 0.16 0.16 0.0 0 1 166.82 75.01
  Q 166.82 74.88 166.82 74.74
  Q 166.82 74.65 166.89 74.57
  Q 174.35 66.36 183.18 54.76
  Q 186.41 50.52 186.98 45.99
  L 191.77 40.99
  Z"
/>
<path fill="#9B9B9B" d="
  M 49.30 52.43
  Q 49.07 54.11 47.72 54.62
  A 1.21 1.20 87.5 0 1 46.14 53.17
  Q 46.46 51.96 46.44 51.76
  Q 46.31 50.12 45.14 51.33
  L 41.30 55.33
  Q 42.66 52.10 45.50 50.18
  A 0.96 0.96 0.0 0 1 47.00 50.99
  L 46.98 53.53
  Q 46.97 54.20 47.50 53.79
  L 49.30 52.43
  Z"
/>
<path fill="#9B9B9B" d="
  M 39.64 57.17
  Q 38.67 58.27 37.64 56.30
  Q 37.27 55.61 36.82 53.74
  Q 36.58 52.73 35.62 53.16
  Q 35.21 53.34 35.09 53.77
  Q 33.67 59.23 31.84 63.26
  Q 30.62 65.95 26.03 75.45
  Q 21.32 85.20 20.95 94.00
  Q 20.68 100.58 19.22 104.19
  Q 12.05 121.89 11.16 141.00
  Q 10.61 153.00 11.09 165.00
  Q 11.10 165.24 10.74 165.31
  C 10.30 165.10 10.04 164.66 10.03 164.14
  Q 9.90 150.25 10.05 145.26
  Q 10.69 123.93 18.61 104.20
  C 19.05 103.11 18.82 101.83 19.66 100.72
  Q 19.99 100.28 19.99 99.74
  L 20.00 92.24
  A 1.55 1.50 -30.7 0 1 20.21 91.47
  C 21.29 89.59 20.87 87.73 21.41 85.93
  C 22.23 83.16 22.82 80.39 24.10 77.79
  Q 27.02 71.86 29.94 65.92
  C 32.30 61.13 33.79 56.25 35.40 51.25
  A 0.71 0.71 0.0 0 1 36.09 50.75
  Q 36.37 50.75 36.58 50.98
  Q 36.72 51.15 36.76 51.47
  Q 37.13 54.86 39.64 57.17
  Z"
/>
<path fill="#9B9B9B" d="
  M 229.78 88.33
  L 229.63 91.92
  C 229.33 94.61 229.26 97.29 228.01 98.53
  Q 227.67 98.87 227.60 99.34
  Q 227.17 102.12 226.68 104.89
  Q 226.64 105.14 226.52 105.32
  Q 226.34 105.58 226.20 105.68
  A 0.38 0.38 0.0 0 1 225.60 105.39
  Q 225.35 98.42 226.22 91.50
  Q 226.99 85.43 225.91 69.82
  C 225.56 64.74 223.66 59.06 223.44 54.26
  Q 223.36 52.26 224.38 53.98
  C 226.79 58.02 227.60 64.51 228.75 69.58
  C 230.14 75.74 229.55 82.03 229.78 88.33
  Z"
/>
<path fill="#FEFEFE" d="
  M 256.91 92.21
  Q 256.84 95.97 255.30 92.54
  C 251.29 83.65 249.89 74.44 248.14 65.01
  C 247.51 61.61 247.29 58.20 247.18 54.88
  Q 247.11 52.99 248.20 54.54
  Q 257.14 67.30 257.01 83.50
  Q 256.97 88.70 256.91 92.21
  Z"
/>
<path fill="#9B9B9B" d="
  M 217.71 61.45
  Q 213.80 68.49 212.15 75.21
  Q 209.29 79.60 209.14 84.27
  C 209.02 88.18 207.90 91.86 209.07 95.36
  Q 209.62 96.98 209.89 98.67
  C 210.51 102.44 211.39 106.07 211.62 109.89
  Q 211.69 111.16 210.83 110.22
  Q 210.21 109.54 210.35 108.66
  Q 210.44 108.16 210.21 107.69
  C 209.20 105.65 209.22 103.68 208.52 101.57
  Q 208.10 100.33 207.98 99.01
  Q 207.87 97.94 207.25 97.47
  A 0.58 0.58 0.0 0 0 206.32 97.89
  C 205.67 106.31 208.81 114.41 207.21 122.73
  Q 207.14 123.06 206.97 123.22
  Q 206.50 123.66 205.92 123.02
  A 0.81 0.80 21.2 0 1 205.72 122.58
  Q 204.43 112.93 203.59 103.25
  Q 203.50 102.22 202.80 99.56
  C 200.75 91.73 203.16 82.71 202.72 74.62
  Q 202.54 71.30 200.64 74.03
  Q 198.23 77.52 196.21 81.30
  Q 192.81 87.67 191.16 92.45
  Q 187.51 98.30 185.81 103.96
  C 184.25 109.13 184.32 116.31 183.41 122.43
  Q 182.75 124.90 181.33 123.06
  A 1.06 1.03 -67.7 0 1 181.11 122.51
  Q 179.60 106.62 186.65 94.00
  Q 190.30 87.48 191.84 82.88
  Q 192.42 82.09 192.57 81.29
  Q 192.70 80.62 192.04 80.74
  Q 190.98 80.93 189.93 81.79
  C 186.18 82.73 183.75 85.72 180.73 89.08
  Q 177.58 92.60 176.46 94.83
  C 176.17 95.40 175.97 95.57 175.47 95.89
  Q 175.09 96.14 174.88 96.55
  L 172.61 101.04
  Q 172.39 101.47 172.39 101.96
  Q 172.38 102.78 171.83 103.44
  Q 171.51 103.83 171.44 104.33
  C 171.13 106.40 170.40 108.34 170.26 110.34
  Q 169.92 115.28 169.84 118.62
  Q 169.73 123.22 168.72 118.73
  Q 167.19 111.97 169.17 104.91
  C 169.48 103.80 170.25 102.91 170.13 101.44
  Q 170.12 101.33 170.22 101.28
  Q 170.35 101.21 170.49 101.14
  Q 170.64 101.07 170.69 100.92
  C 171.64 97.96 172.63 95.55 174.70 93.19
  C 175.65 92.11 175.89 90.82 176.75 89.87
  C 181.25 84.89 185.35 82.23 191.30 79.02
  Q 194.85 77.11 197.16 74.69
  Q 201.72 69.92 205.32 64.34
  Q 205.47 64.12 205.83 63.82
  Q 206.48 63.29 205.82 62.68
  A 0.64 0.64 0.0 0 0 205.07 62.61
  C 196.06 67.96 187.50 75.86 180.09 83.23
  Q 179.85 83.47 179.59 83.99
  Q 179.37 84.43 179.06 84.70
  Q 174.51 88.67 172.90 90.76
  Q 170.80 93.49 169.29 94.77
  Q 168.93 95.07 168.75 95.52
  C 168.10 97.11 166.73 98.07 165.88 99.40
  Q 164.49 101.57 164.25 101.88
  C 161.82 104.89 160.50 109.58 158.99 113.17
  C 157.24 117.34 156.71 122.16 154.89 126.49
  Q 153.92 128.78 153.80 126.30
  Q 153.68 123.80 153.92 120.50
  A 0.38 0.37 -6.9 0 0 153.43 120.12
  L 153.06 120.25
  A 0.96 0.95 86.9 0 0 152.41 120.98
  Q 151.85 123.70 150.80 126.26
  Q 149.62 129.15 149.62 126.03
  L 149.62 124.97
  Q 149.62 124.44 149.10 124.38
  Q 148.93 124.36 148.74 124.42
  Q 148.54 124.49 148.36 124.74
  Q 147.87 125.40 147.27 125.80
  A 0.96 0.95 -19.2 0 1 145.78 125.08
  Q 145.57 121.93 146.96 118.92
  Q 150.37 111.52 151.86 109.86
  C 154.01 107.48 155.46 104.73 157.52 102.36
  C 160.41 99.05 163.43 94.92 168.12 89.72
  Q 168.43 89.38 168.52 88.91
  Q 168.61 88.46 168.92 88.20
  Q 169.52 87.72 169.53 87.70
  C 171.98 85.13 174.98 82.97 177.33 80.63
  Q 190.71 67.27 207.75 58.30
  A 0.69 0.69 0.0 0 1 208.75 58.99
  C 208.43 61.76 207.28 64.68 206.83 67.02
  Q 205.97 71.51 205.55 75.67
  Q 205.11 80.13 207.03 76.09
  Q 207.60 74.88 208.84 71.59
  Q 211.44 64.62 216.09 58.84
  Q 217.34 57.29 218.70 56.24
  A 0.69 0.69 0.0 0 1 219.77 56.56
  Q 223.40 66.67 223.69 77.25
  Q 223.87 83.38 223.86 89.51
  C 223.86 96.33 222.98 105.41 223.12 113.44
  A 0.30 0.30 0.0 0 1 222.73 113.72
  L 222.38 113.60
  Q 221.77 113.40 221.68 112.77
  C 220.01 102.17 220.12 93.85 220.13 84.19
  C 220.14 76.23 219.26 68.39 218.63 60.46
  Q 218.58 59.82 218.09 60.24
  Q 216.60 61.54 217.71 61.45
  Z"
/>
<path fill="#FEFEFE" d="
  M 229.63 91.92
  L 229.78 88.33
  Q 231.09 80.53 231.71 72.70
  C 232.10 67.72 231.42 61.84 231.43 56.32
  A 0.31 0.31 0.0 0 1 232.01 56.17
  C 234.92 61.54 236.15 68.24 237.71 74.10
  C 241.41 88.04 237.72 104.35 233.05 117.97
  Q 231.63 122.11 231.34 117.74
  L 229.63 91.92
  Z"
/>
<path fill="#9B9B9B" d="
  M 38.25 118.18
  C 36.59 113.49 34.28 108.57 34.30 103.31
  C 34.31 100.24 36.32 97.98 36.91 95.50
  Q 40.94 78.53 50.88 64.26
  Q 51.01 64.08 51.19 64.19
  L 51.20 64.19
  Q 51.39 64.30 51.29 64.50
  C 46.88 73.39 42.54 82.31 40.16 91.99
  C 37.69 102.00 38.94 109.40 42.15 117.84
  C 43.27 120.80 46.46 123.70 49.86 126.37
  Q 52.17 128.20 49.38 129.14
  L 48.25 129.52
  Q 45.37 130.48 42.77 128.90
  C 29.65 120.90 25.88 103.55 27.21 89.25
  Q 27.63 84.65 28.96 81.57
  Q 30.56 77.89 30.22 81.89
  Q 29.86 86.18 29.56 92.25
  Q 29.48 93.78 29.81 94.27
  Q 30.54 95.39 30.72 94.16
  C 31.67 87.74 32.62 80.29 34.91 74.83
  C 37.48 68.70 42.04 62.42 47.96 59.24
  Q 49.83 58.24 48.36 59.76
  C 45.54 62.69 42.47 65.79 40.43 69.22
  C 36.81 75.34 35.32 81.39 34.36 88.53
  Q 33.88 92.08 33.08 95.29
  C 32.32 98.32 31.33 101.20 31.67 104.30
  Q 32.56 112.42 37.74 118.48
  Q 38.80 119.71 38.25 118.18
  Z"
/>
<path fill="#FEFEFE" d="
  M 212.15 75.21
  Q 213.80 68.49 217.71 61.45
  Q 218.10 65.72 218.56 69.49
  Q 219.14 74.23 219.22 77.54
  Q 219.65 96.32 217.37 114.98
  Q 217.16 116.71 216.85 117.74
  Q 216.30 119.62 216.12 117.67
  Q 215.88 115.23 215.69 112.54
  C 215.17 105.41 212.15 98.81 211.75 91.63
  Q 211.28 83.40 212.15 75.21
  Z"
/>
<path fill="#FEFEFE" d="
  M 117.21 94.91
  C 111.54 105.10 109.50 113.11 107.33 123.28
  Q 106.94 125.12 105.42 125.22
  A 1.19 1.19 0.0 0 1 104.16 124.27
  L 101.79 112.75
  C 108.75 95.16 119.97 80.58 132.88 66.87
  Q 134.48 65.18 135.52 64.49
  Q 137.29 63.32 136.07 65.05
  Q 131.44 71.60 126.49 78.31
  C 122.58 83.61 120.02 89.11 117.21 94.91
  Z"
/>
<path fill="#FEFEFE" d="
  M 126.39 69.20
  Q 124.37 71.24 122.73 73.44
  Q 120.09 76.97 119.33 77.90
  Q 113.84 84.56 109.22 91.97
  Q 104.30 98.94 100.28 106.54
  Q 99.92 107.21 99.10 107.55
  Q 98.63 107.74 98.63 107.24
  Q 98.63 106.54 98.46 106.06
  Q 103.27 92.46 111.18 81.03
  Q 116.93 76.07 122.08 70.75
  Q 123.10 69.69 123.84 69.18
  Q 126.21 67.50 126.39 69.20
  Z"
/>
<path fill="#FEFEFE" d="
  M 54.03 108.79
  C 56.01 99.08 59.58 90.04 65.28 81.90
  C 68.73 76.98 73.77 72.86 78.10 68.57
  Q 78.39 68.28 78.71 68.55
  L 78.90 68.71
  Q 79.03 68.82 78.93 68.96
  C 69.89 81.64 63.83 97.23 60.16 112.26
  C 59.28 115.90 59.28 119.70 59.14 123.45
  A 0.44 0.44 0.0 0 1 58.66 123.88
  Q 58.26 123.85 58.08 123.46
  C 55.61 118.17 53.00 113.85 54.03 108.79
  Z"
/>
<path fill="#FEFEFE" d="
  M 202.15 75.76
  C 202.10 81.34 202.15 85.90 201.40 90.35
  C 200.83 93.70 201.05 97.18 200.73 100.58
  C 200.23 106.00 200.29 110.95 200.32 115.79
  Q 200.36 121.82 198.56 116.07
  C 194.69 103.67 193.76 90.42 200.11 78.72
  Q 200.89 77.28 201.15 76.08
  A 0.57 0.57 0.0 0 1 201.70 75.62
  Q 201.85 75.62 202.01 75.62
  Q 202.15 75.62 202.15 75.76
  Z"
/>
<path fill="#FEFEFE" d="
  M 191.84 82.88
  Q 184.83 93.06 181.21 104.51
  C 179.63 109.50 179.32 115.31 178.54 120.75
  Q 178.17 123.34 178.21 125.93
  Q 178.21 126.38 177.80 126.56
  C 176.25 127.24 175.41 126.34 175.01 124.89
  C 173.46 119.19 172.96 113.44 172.10 107.63
  C 171.54 103.87 174.92 97.87 177.71 93.74
  Q 180.53 89.56 189.93 81.79
  Q 190.98 80.93 192.04 80.74
  Q 192.70 80.62 192.57 81.29
  Q 192.42 82.09 191.84 82.88
  Z"
/>
<path fill="#FEFEFE" d="
  M 86.38 107.46
  Q 86.21 100.95 88.38 95.63
  Q 89.95 91.75 93.05 85.79
  Q 94.08 84.59 94.67 84.37
  A 0.38 0.38 0.0 0 1 95.17 84.83
  Q 93.54 90.52 91.92 96.05
  Q 88.68 107.06 89.42 118.52
  Q 89.44 118.80 89.33 118.95
  Q 89.24 119.07 89.11 119.11
  Q 88.91 119.17 88.83 118.97
  Q 86.74 113.41 86.38 107.46
  Z"
/>
<path fill="#FEFEFE" d="
  M 139.19 120.96
  C 141.95 109.39 154.86 89.82 167.47 87.40
  Q 169.13 87.08 168.00 88.34
  Q 159.96 97.31 152.73 107.20
  C 148.74 112.65 144.04 117.19 139.74 122.29
  A 0.53 0.53 0.0 0 1 138.81 122.07
  Q 138.76 121.83 138.96 121.49
  Q 139.13 121.19 139.19 120.96
  Z"
/>
<path fill="#FEFEFE" d="
  M 183.41 122.43
  C 184.32 116.31 184.25 109.13 185.81 103.96
  Q 187.51 98.30 191.16 92.45
  Q 189.29 101.58 187.74 109.62
  Q 187.33 111.72 186.74 117.17
  Q 186.31 121.17 185.30 124.67
  Q 184.55 127.28 183.57 124.75
  Q 183.36 124.21 183.41 122.43
  Z"
/>
<path fill="#FEFEFE" d="
  M 51.77 98.57
  L 50.72 101.21
  C 47.76 106.00 48.68 110.08 47.79 114.84
  Q 47.36 117.11 46.95 114.84
  Q 46.27 111.11 45.81 106.49
  C 45.31 101.57 47.37 98.57 51.00 95.64
  Q 53.16 93.89 52.37 96.55
  L 51.77 98.57
  Z"
/>
<path fill="#FEFEFE" d="
  M 166.91 100.61
  Q 166.98 100.47 167.18 100.40
  A 0.64 0.64 0.0 0 1 168.02 100.99
  C 168.03 101.35 167.93 101.97 167.72 102.32
  Q 162.39 111.06 158.66 123.16
  Q 158.35 124.18 157.82 123.25
  L 157.51 122.68
  A 2.49 2.47 38.7 0 1 157.29 120.73
  C 159.24 114.29 161.76 105.92 166.67 101.07
  A 0.52 0.01 -63.4 0 0 166.91 100.61
  Z"
/>
<path fill="#9B9B9B" d="
  M 274.49 272.67
  Q 272.23 259.63 269.97 246.83
  C 269.15 242.19 267.49 236.72 266.65 231.53
  Q 266.27 229.22 266.03 221.43
  Q 265.71 211.60 262.25 202.34
  C 259.09 193.87 263.69 188.22 264.93 180.29
  C 267.43 164.20 267.00 143.10 253.37 131.53
  C 248.47 127.37 242.54 126.09 236.25 126.06
  Q 223.00 125.99 209.74 126.01
  C 206.81 126.01 203.93 126.89 200.84 127.03
  Q 195.30 127.27 194.18 127.41
  Q 174.96 129.82 155.79 132.57
  C 153.00 132.97 149.64 132.92 146.85 132.49
  Q 131.84 130.18 116.78 128.18
  C 115.08 127.95 112.53 128.42 110.51 127.25
  Q 110.08 127.00 109.58 127.00
  Q 105.05 127.02 100.50 126.96
  C 99.25 126.94 98.61 126.01 97.27 126.01
  Q 81.88 125.99 66.48 126.00
  C 63.05 126.00 60.05 126.99 56.74 127.77
  Q 53.82 128.45 49.15 132.66
  C 38.29 142.44 37.65 159.44 38.03 173.00
  Q 38.20 178.86 39.48 182.76
  C 41.18 187.95 44.04 195.19 42.43 199.89
  Q 38.75 210.61 38.49 214.24
  Q 38.00 221.11 37.53 227.98
  Q 37.29 231.54 35.75 238.25
  Q 32.52 252.39 29.90 270.31
  Q 29.37 270.29 29.40 270.00
  C 31.11 256.52 33.05 245.03 36.19 232.49
  C 37.73 226.36 36.94 218.24 37.59 213.75
  C 38.39 208.21 42.34 201.33 41.85 194.86
  C 41.37 188.57 38.03 182.86 37.34 176.47
  C 35.62 160.62 37.11 141.67 50.53 130.79
  C 57.71 124.97 66.93 124.64 75.75 124.69
  C 100.27 124.82 123.43 127.95 148.50 131.99
  Q 151.97 132.55 155.98 131.86
  Q 182.08 127.34 208.51 125.51
  Q 223.00 124.51 237.51 124.99
  C 251.34 125.45 261.29 135.75 264.81 148.49
  Q 269.11 164.04 266.12 179.75
  C 265.49 183.09 263.80 186.89 262.85 190.51
  C 260.85 198.12 263.59 203.10 265.47 210.03
  C 267.58 217.78 266.43 225.91 268.11 233.74
  C 270.18 243.46 272.31 252.83 273.73 263.91
  Q 273.74 263.96 274.43 267.56
  Q 274.92 270.07 274.49 272.67
  Z"
/>
<path fill="#9B9B9B" d="
  M 10.81 165.77
  C 11.32 166.66 11.09 167.96 11.17 168.76
  Q 12.29 179.75 13.25 190.75
  Q 14.87 209.17 19.33 227.11
  Q 21.16 234.48 22.67 242.30
  A 0.29 0.29 0.0 0 1 22.16 242.54
  L 21.95 242.28
  Q 21.44 240.36 20.52 239.34
  C 21.49 237.36 20.64 236.70 20.25 234.97
  C 18.32 226.42 16.28 217.71 15.00 209.26
  Q 11.86 188.59 10.57 167.70
  Q 10.55 167.31 10.36 166.96
  Q 9.96 166.19 10.81 165.77
  Z"
/>
<path fill="#D1D1D1" d="
  M 97.59 234.91
  Q 94.48 233.75 91.20 234.43
  Q 89.35 234.52 87.46 233.97
  Q 85.14 232.71 82.95 233.28
  L 74.17 231.89
  Q 67.22 230.28 59.88 234.36
  Q 57.07 235.92 51.12 240.85
  Q 50.74 241.16 50.25 241.19
  L 46.89 241.44
  C 42.68 239.97 44.39 234.67 46.06 231.78
  Q 51.23 225.55 57.33 220.75
  Q 63.49 218.84 66.49 218.41
  C 81.46 216.30 99.04 219.14 111.45 228.27
  A 1.79 1.79 0.0 0 1 111.38 231.20
  Q 105.10 235.39 97.59 234.91
  Z"
/>
<path fill="#D1D1D1" d="
  M 245.36 220.62
  Q 251.87 225.06 257.05 232.11
  C 257.96 233.65 259.91 238.52 258.04 239.97
  Q 254.81 242.54 250.89 240.36
  L 245.31 236.06
  Q 237.51 230.18 229.22 231.82
  Q 220.97 233.32 212.78 234.66
  C 206.60 235.68 195.68 235.39 190.97 230.40
  A 1.22 1.21 -39.4 0 1 191.15 228.58
  C 203.66 219.73 219.37 216.55 234.51 218.07
  Q 238.27 218.45 245.36 220.62
  Z"
/>
<path fill="#9B9B9B" d="
  M 57.33 220.75
  Q 51.23 225.55 46.06 231.78
  Q 50.32 224.02 57.33 220.75
  Z"
/>
<path fill="#9B9B9B" d="
  M 245.36 220.62
  Q 252.83 223.96 257.05 232.11
  Q 251.87 225.06 245.36 220.62
  Z"
/>
<path fill="#9B9B9B" d="
  M 74.17 231.89
  C 64.03 231.26 58.04 235.73 50.48 241.71
  Q 49.04 242.84 46.89 241.44
  L 50.25 241.19
  Q 50.74 241.16 51.12 240.85
  Q 57.07 235.92 59.88 234.36
  Q 67.22 230.28 74.17 231.89
  Z"
/>
<path fill="#9B9B9B" d="
  M 245.31 236.06
  C 239.75 233.35 236.38 231.79 229.22 231.82
  Q 237.51 230.18 245.31 236.06
  Z"
/>
<path fill="#9B9B9B" d="
  M 87.46 233.97
  L 82.95 233.28
  Q 85.14 232.71 87.46 233.97
  Z"
/>
<path fill="#FEFEFE" d="
  M 20.52 239.34
  Q 21.44 240.36 21.95 242.28
  Q 22.50 244.86 21.17 247.18
  C 20.55 244.55 20.04 242.27 17.77 240.52
  C 14.23 237.79 8.66 234.02 4.30 237.01
  Q 2.57 238.20 3.27 239.93
  A 1.08 1.05 -0.9 0 0 3.91 240.53
  C 5.65 241.14 6.51 241.87 7.13 243.72
  C 10.67 254.13 11.68 262.66 13.34 275.77
  C 14.56 285.40 17.11 294.35 19.11 303.54
  C 21.13 312.86 25.07 321.38 29.04 329.98
  C 29.95 331.94 31.92 331.67 33.32 332.31
  Q 35.57 333.33 35.11 330.90
  Q 31.60 312.09 29.38 293.82
  Q 28.86 289.51 27.19 283.07
  Q 28.14 283.10 28.10 281.63
  Q 28.09 281.15 28.49 280.88
  Q 29.47 280.25 29.03 279.12
  C 29.98 283.06 31.27 286.54 31.70 290.59
  Q 34.06 312.70 38.22 334.56
  Q 38.36 335.26 38.27 336.95
  C 38.21 338.05 38.63 339.21 38.69 340.20
  Q 39.60 356.68 43.88 372.55
  Q 45.97 380.28 47.08 385.08
  Q 49.20 394.21 50.74 397.49
  C 57.78 412.43 64.61 425.25 72.27 436.48
  C 74.84 440.25 78.07 443.50 81.09 447.01
  Q 83.54 449.86 85.52 451.90
  Q 99.93 466.85 107.37 473.62
  C 115.04 480.60 124.78 488.31 134.49 489.26
  Q 147.42 490.52 165.75 489.53
  Q 174.79 489.04 181.11 485.37
  Q 187.79 481.48 196.61 473.61
  Q 201.59 469.17 217.47 452.98
  Q 220.02 450.38 223.63 446.14
  C 226.33 442.98 229.27 440.13 231.53 436.73
  C 234.51 432.26 237.27 428.01 239.95 423.07
  C 241.26 420.65 242.84 418.29 244.02 415.99
  C 247.98 408.28 253.11 399.73 255.17 391.33
  Q 257.68 381.12 260.41 370.97
  Q 264.41 356.09 265.15 341.63
  C 265.24 339.83 265.81 338.48 265.76 336.79
  C 265.69 334.04 266.59 330.83 266.88 328.89
  C 268.20 319.99 269.85 311.15 270.94 302.21
  C 271.42 298.33 272.72 293.14 272.91 288.42
  Q 273.40 288.71 273.63 288.61
  Q 273.66 288.59 273.87 288.40
  Q 274.00 288.28 274.07 288.14
  A 0.03 0.03 0.0 0 1 274.12 288.14
  Q 274.14 288.28 274.20 288.40
  Q 274.29 288.58 274.43 288.44
  L 275.71 287.27
  L 268.81 332.16
  A 0.50 0.50 0.0 0 0 269.46 332.71
  C 271.49 332.07 274.34 331.78 275.35 329.40
  Q 278.69 321.58 281.78 313.65
  Q 283.03 310.44 285.58 299.82
  Q 288.72 286.71 289.64 282.03
  C 290.63 276.97 291.19 271.18 291.88 266.68
  C 292.53 262.46 292.84 258.18 294.08 254.21
  Q 295.18 250.71 296.44 247.26
  A 1.60 1.57 86.5 0 1 297.17 246.42
  L 299.44 245.17
  A 1.26 1.26 0.0 0 0 299.97 243.51
  C 296.79 237.02 287.29 243.96 283.99 246.27
  Q 282.99 246.93 282.11 248.07
  A 0.40 0.40 0.0 0 1 281.39 247.88
  L 281.21 246.52
  L 281.93 244.82
  Q 282.96 245.29 283.90 243.39
  Q 284.88 243.50 286.02 241.88
  C 289.48 239.21 297.65 236.38 300.81 240.95
  Q 302.23 242.99 302.07 245.73
  A 1.03 1.02 -14.0 0 1 301.57 246.55
  Q 297.54 248.94 296.60 253.52
  C 295.82 257.36 295.02 261.07 294.55 265.03
  Q 292.32 283.83 290.27 291.50
  C 289.16 295.66 288.49 298.76 287.39 302.62
  C 286.81 304.66 286.60 306.83 285.96 308.74
  C 284.31 313.68 282.88 317.93 280.58 323.15
  C 277.89 329.26 277.20 335.38 268.80 334.95
  A 0.74 0.74 0.0 0 0 268.02 335.67
  C 267.63 351.25 264.43 367.33 260.04 382.29
  C 258.42 387.79 257.42 394.25 254.79 399.50
  C 248.19 412.71 241.79 426.85 232.96 438.74
  C 224.22 450.51 212.80 460.84 202.40 471.19
  C 194.41 479.14 180.80 491.44 169.65 491.82
  Q 155.58 492.30 141.50 492.22
  Q 133.13 492.18 129.75 491.25
  Q 126.43 490.33 119.31 485.95
  Q 111.25 480.98 102.04 471.71
  C 88.52 458.11 74.25 445.60 64.43 428.43
  Q 56.52 414.63 49.66 400.28
  Q 47.69 396.15 46.30 390.88
  C 42.66 376.99 38.33 363.65 36.91 348.03
  C 36.58 344.39 35.47 341.00 36.25 336.73
  A 1.50 1.49 6.0 0 0 34.82 334.97
  C 25.95 334.69 25.68 328.17 22.88 321.80
  C 20.51 316.40 18.28 310.37 17.05 304.65
  C 15.61 297.99 13.57 291.10 12.51 284.79
  Q 11.38 278.02 10.49 271.22
  Q 8.76 257.92 6.10 247.42
  Q 5.16 243.71 1.58 241.68
  A 1.03 1.03 0.0 0 1 1.05 240.91
  Q 0.69 238.12 2.12 236.01
  C 5.14 231.56 12.54 234.05 16.02 236.42
  Q 18.24 237.92 20.52 239.34
  Z"
/>
<path fill="#9B9B9B" d="
  M 97.59 234.91
  L 91.20 234.43
  Q 94.48 233.75 97.59 234.91
  Z"
/>
<path fill="#9B9B9B" d="
  M 258.04 239.97
  Q 254.35 243.97 250.89 240.36
  Q 254.81 242.54 258.04 239.97
  Z"
/>
<path fill="#9B9B9B" d="
  M 286.02 241.88
  Q 284.88 243.50 283.90 243.39
  Q 284.11 242.13 286.02 241.88
  Z"
/>
</svg>
